<?xml version="1.0" standalone="no"?>
<!DOCTYPE svg PUBLIC "-//W3C//DTD SVG 20010904//EN"
 "http://www.w3.org/TR/2001/REC-SVG-20010904/DTD/svg10.dtd">
<svg version="1.0" xmlns="http://www.w3.org/2000/svg"
 width="1024.000000pt" height="1024.000000pt" viewBox="0 0 1024.000000 1024.000000"
 preserveAspectRatio="xMidYMid meet">
<metadata>
Created by potrace 1.14, written by Peter Selinger 2001-2017
</metadata>
<g transform="translate(0.000000,1024.000000) scale(0.100000,-0.100000)"
fill="#000000" stroke="none">
<path d="M1915 10229 c-250 -31 -334 -45 -450 -74 -249 -64 -433 -142 -615
-262 -277 -183 -467 -394 -601 -668 -108 -221 -169 -483 -226 -965 -16 -133
-17 -391 -20 -3195 -3 -2750 -2 -3063 12 -3185 52 -432 115 -688 226 -915 212
-436 675 -774 1203 -880 252 -50 212 -49 2407 -58 l656 -2 -61 58 c-33 32 -54
55 -46 52 10 -4 9 -1 -3 8 -28 23 -1 77 41 83 6 1 12 -2 12 -8 0 -7 5 -7 13 1
10 8 17 7 25 -1 9 -9 12 -9 12 1 0 10 4 10 13 3 12 -10 17 -12 38 -12 5 0 7
-5 3 -12 -4 -7 -3 -8 5 -4 9 6 9 11 0 22 -10 12 -9 13 4 8 9 -3 18 -13 20 -22
4 -15 5 -15 6 1 1 19 21 24 21 5 0 -9 4 -8 10 2 7 11 10 11 10 2 0 -9 5 -10
18 -3 13 7 23 6 32 -2 7 -7 10 -7 7 -2 -3 6 6 10 19 10 13 0 24 -4 24 -8 0 -4
8 -3 18 2 13 7 23 6 30 -1 9 -9 12 -9 12 1 0 7 5 9 13 4 17 -11 38 -13 32 -3
-9 14 71 3 97 -14 20 -13 25 -14 25 -2 0 9 -7 12 -16 8 -9 -3 -13 -1 -8 3 4 5
40 9 80 10 61 1 75 -2 90 -19 l18 -21 -11 22 c-7 16 -7 23 0 23 5 0 10 -4 10
-10 0 -5 5 -10 11 -10 5 0 8 4 5 8 -6 11 62 8 72 -3 4 -5 1 -5 -5 -1 -19 10
-16 1 4 -15 12 -10 14 -10 9 -1 -4 7 -1 14 8 18 23 9 106 11 106 3 0 -4 13 -4
29 1 25 7 32 5 45 -13 13 -19 15 -19 9 -3 -4 13 -3 17 5 12 7 -4 12 -3 12 1 0
9 157 10 166 0 3 -3 17 -2 30 3 16 6 24 6 24 -1 0 -6 5 -7 10 -4 6 4 7 12 3
18 -4 7 5 4 20 -6 18 -12 27 -14 27 -5 0 9 3 9 12 0 7 -7 17 -12 23 -12 5 0 3
5 -5 10 -10 6 0 8 33 5 33 -3 47 -1 47 8 0 8 3 8 9 -2 5 -7 15 -11 22 -9 8 3
21 -4 30 -15 13 -17 16 -17 16 -4 0 9 -4 14 -9 11 -4 -3 -8 -1 -8 5 0 5 12 8
28 6 15 -2 27 -4 27 -5 0 -1 8 -3 18 -5 9 -2 15 0 13 4 -3 4 9 5 26 3 24 -4
29 -2 23 9 -7 11 -6 12 6 2 9 -7 43 -11 84 -10 39 0 75 -2 81 -5 5 -4 16 -3
24 2 9 5 19 5 27 -2 9 -7 18 -7 30 3 13 11 17 11 21 1 3 -10 7 -10 18 -1 11 9
18 9 29 -1 8 -7 15 -8 15 -3 0 5 7 10 15 10 18 0 19 -9 5 -23 -7 -7 -6 -11 4
-11 8 0 15 3 14 6 -3 29 3 33 25 15 12 -10 16 -12 10 -4 -15 16 -17 34 -4 25
5 -3 13 -1 16 5 5 8 11 8 20 0 8 -7 19 -9 24 -6 5 4 13 2 16 -4 5 -8 12 -7 23
2 10 8 13 9 9 1 -4 -6 -3 -14 3 -18 5 -3 10 2 10 12 0 14 2 15 9 4 5 -8 16
-11 25 -8 8 3 18 2 21 -3 4 -6 11 -10 16 -10 6 0 8 4 5 8 -6 10 25 9 42 -2 7
-4 12 -2 12 4 0 8 6 7 21 -1 15 -8 19 -8 15 0 -8 12 21 11 42 -2 6 -5 12 -5
12 0 0 4 13 8 29 8 16 0 27 -4 23 -9 -3 -5 1 -5 9 0 22 13 90 14 82 0 -3 -6 2
-3 13 6 19 16 22 17 44 1 22 -16 23 -16 17 2 -6 14 -5 16 6 7 8 -7 18 -8 22
-4 5 4 5 2 2 -4 -4 -7 1 -15 11 -19 27 -13 43 -14 36 -4 -3 5 -10 6 -16 3 -7
-5 -8 -2 -3 6 6 9 4 11 -5 5 -9 -5 -11 -4 -6 4 6 9 11 9 22 0 11 -9 18 -8 31
2 13 11 15 11 9 1 -10 -16 25 -13 36 3 4 6 8 2 8 -8 0 -10 5 -15 10 -12 6 4 7
11 4 17 -5 7 -2 8 7 2 8 -5 23 -7 34 -5 16 3 17 1 6 -13 -12 -14 -12 -16 3
-10 9 3 16 10 16 16 0 5 7 2 16 -6 22 -22 27 -20 13 7 -8 16 -8 19 0 11 7 -6
31 -8 61 -4 31 4 50 3 50 -3 0 -6 3 -7 7 -4 3 4 12 -1 19 -11 12 -15 12 -14 7
8 l-5 25 23 -25 c13 -14 20 -20 15 -13 -14 21 -3 24 27 8 14 -7 26 -11 26 -7
-1 4 -1 12 0 17 1 12 111 15 111 3 0 -5 -5 -6 -12 -2 -6 4 -8 3 -5 -3 4 -6 18
-8 32 -6 15 3 22 10 18 17 -4 6 0 5 9 -2 10 -8 19 -9 22 -3 6 10 24 10 41 -1
6 -4 17 -3 25 2 9 5 20 4 29 -3 8 -7 12 -7 9 -1 -5 6 10 10 43 8 36 -1 54 -6
64 -20 14 -18 14 -18 11 2 -3 13 1 21 10 21 8 0 14 -4 14 -9 0 -4 5 -8 11 -8
5 0 7 5 4 10 -8 12 -8 12 33 1 20 -6 30 -6 27 0 -8 11 15 12 34 0 14 -9 53 -3
47 8 -2 3 14 7 36 9 22 1 45 4 51 5 7 1 11 -4 9 -11 -1 -8 2 -11 8 -7 6 4 9
14 5 23 -5 13 -1 12 15 -3 17 -16 20 -16 15 -2 -6 14 -2 15 23 8 21 -6 38 -5
56 5 19 9 25 10 19 1 -4 -8 -1 -7 10 1 9 8 21 11 26 7 7 -4 8 1 4 12 -6 16 -5
17 12 3 15 -12 17 -12 10 -1 -6 11 -4 13 7 8 9 -3 27 1 42 8 25 13 26 13 15
-8 l-10 -22 18 20 c24 28 48 36 62 22 9 -9 11 -8 5 7 -6 16 -5 17 14 7 18 -10
21 -9 16 4 -5 11 -2 14 10 9 11 -4 22 1 31 12 8 11 15 15 15 11 0 -4 10 -3 22
4 18 10 20 9 15 -5 -4 -10 -3 -15 3 -11 6 3 10 12 10 19 0 7 12 18 26 24 14 7
23 8 19 2 -3 -6 1 -7 9 -4 9 3 13 11 9 17 -4 7 0 8 11 4 13 -5 17 -3 13 6 -3
8 1 14 9 14 7 0 10 -5 7 -11 -3 -6 5 -1 19 12 13 12 30 22 38 22 7 0 19 8 27
18 10 11 12 12 8 2 -4 -10 -2 -9 8 3 8 9 20 17 26 17 7 0 9 5 5 12 -4 6 -3 8
4 4 6 -3 18 1 26 10 12 12 16 12 17 2 1 -7 5 -2 9 12 6 18 8 20 9 7 1 -10 6
-15 12 -12 6 4 8 13 5 21 -6 17 6 18 21 3 9 -9 10 -7 6 9 -4 17 1 24 18 31 13
5 28 6 33 3 5 -3 6 0 2 6 -4 8 0 12 11 12 15 0 16 2 3 10 -11 7 -12 10 -2 10
18 0 43 26 34 35 -4 4 -2 6 3 5 21 -5 36 0 30 10 -3 6 1 10 9 10 8 0 21 10 27
23 15 27 65 77 72 71 3 -3 11 8 18 25 7 16 17 27 21 25 4 -3 8 -1 8 3 0 5 20
30 45 57 24 27 42 52 40 57 -3 4 4 14 16 22 11 8 22 22 23 31 1 8 6 19 11 23
4 5 4 1 0 -7 -8 -13 -6 -13 8 -1 9 7 14 17 11 22 -3 5 3 9 13 9 15 0 16 2 3
10 -13 9 -7 14 13 11 4 0 6 2 5 6 -3 15 14 43 23 38 4 -3 6 4 4 15 -2 11 0 18
5 15 5 -3 11 4 15 15 3 11 11 20 16 20 5 0 9 9 9 20 0 11 4 20 9 20 12 0 72
121 65 131 -3 5 -1 9 4 9 7 0 33 43 36 60 1 3 5 12 11 20 13 21 16 62 3 54 -7
-5 -8 -2 -4 5 5 7 13 10 20 8 7 -3 13 4 13 14 1 11 -2 17 -7 14 -6 -3 -7 1 -4
9 3 9 11 13 18 9 6 -3 8 -2 3 2 -4 5 0 19 9 33 9 13 11 21 5 18 -6 -4 -11 0
-11 8 0 9 0 19 0 24 0 4 4 7 10 7 5 0 15 6 22 14 7 8 8 11 2 8 -7 -4 -10 6
-10 27 1 19 4 32 9 29 4 -2 4 -9 1 -15 -4 -7 -2 -8 5 -4 6 4 9 12 5 17 -3 5 0
17 8 26 11 14 11 16 -1 8 -11 -6 -13 -4 -8 9 4 10 7 24 7 32 0 9 5 12 11 8 8
-5 8 -1 0 14 -14 26 -14 32 0 32 5 0 7 -5 3 -12 -4 -7 -3 -8 5 -4 9 6 9 11 0
22 -9 11 -8 18 1 29 10 12 10 19 2 27 -8 8 -7 14 5 23 13 10 13 14 3 20 -9 6
-11 4 -5 -6 5 -8 4 -11 0 -6 -5 4 -9 16 -10 27 -1 16 1 18 13 7 13 -10 14 -9
4 9 -6 12 -9 24 -6 27 3 2 7 20 9 38 4 26 2 31 -6 19 -9 -12 -9 -11 -4 5 4 11
8 36 9 55 1 19 6 42 11 50 7 13 6 13 -7 2 -14 -11 -15 -7 -7 35 5 27 5 51 0
56 -5 5 -6 18 -3 29 4 15 7 17 14 6 7 -9 8 -7 4 7 -13 50 -14 75 -3 75 8 0 8
3 2 8 -6 4 -11 16 -11 27 0 11 5 23 11 27 6 5 6 8 0 8 -6 0 -10 51 -11 130 0
71 2 128 5 126 3 -2 6 15 6 39 0 24 -3 41 -7 38 -12 -6 -10 15 3 39 7 14 8 18
0 14 -7 -5 -9 18 -7 69 1 42 -1 71 -4 64 -4 -6 -7 1 -7 16 0 17 2 23 7 14 5
-7 8 29 7 79 -1 51 -5 92 -9 92 -4 0 -5 7 -2 15 4 8 10 12 15 9 5 -3 4 7 -1
21 -13 35 -13 48 3 39 10 -6 10 -4 0 7 -19 20 -16 33 5 18 15 -13 16 -12 4 3
-8 10 -10 23 -6 30 6 10 5 11 -7 1 -13 -10 -15 -8 -12 20 8 67 8 175 1 170 -5
-2 -8 0 -8 6 0 5 3 12 8 14 8 5 8 58 1 73 -3 5 -4 20 -2 34 8 57 8 98 1 94 -5
-3 -8 -1 -8 5 0 5 4 12 9 16 6 3 6 17 1 34 -5 19 -4 33 3 41 9 10 9 11 -1 6
-9 -6 -11 -1 -8 18 3 14 8 31 12 37 4 7 3 9 -3 6 -12 -7 -11 112 1 132 6 9 5
12 -1 8 -6 -4 -11 5 -11 21 -1 15 -2 36 -3 47 -1 11 2 29 6 39 5 12 5 17 -2
13 -11 -7 -11 28 0 39 12 12 8 26 -5 18 -9 -5 -9 -2 1 9 9 12 10 17 2 17 -9 0
-9 5 0 21 9 17 8 20 -3 13 -10 -6 -11 -5 -2 7 7 8 8 23 4 34 -4 11 -5 27 -1
35 6 14 6 38 1 50 -7 17 -5 188 3 204 5 11 5 16 0 13 -6 -4 -10 16 -10 46 -1
29 -3 71 -6 95 -3 23 -2 40 1 38 4 -2 7 9 7 24 1 16 -3 26 -7 24 -4 -3 -8 0
-8 5 0 6 4 11 8 11 4 0 8 19 7 42 0 40 2 43 55 74 71 42 82 53 73 67 -4 7 2 5
12 -3 17 -14 18 -14 6 8 -6 12 -7 22 -2 22 5 0 12 -6 14 -12 4 -10 6 -10 6 0
1 7 5 11 10 8 11 -7 8 20 -3 31 -4 4 -6 3 -4 -2 3 -11 -4 -15 -24 -15 -10 0
-10 2 0 9 17 11 17 21 0 32 -10 7 -10 9 0 9 8 0 10 5 6 12 -10 16 -12 128 -2
122 4 -3 8 0 8 6 0 6 6 8 13 4 6 -4 9 -3 4 1 -4 5 0 16 8 25 14 15 14 19 -2
31 -16 12 -17 12 -6 -2 15 -19 -1 -40 -26 -32 -14 4 -14 3 -1 -6 8 -6 10 -11
4 -11 -18 0 -24 12 -13 26 6 8 16 11 23 7 6 -4 5 1 -3 10 -7 9 -10 17 -6 17 5
0 1 8 -8 18 -12 13 -15 37 -14 100 1 49 -2 82 -8 82 -5 0 -3 5 5 10 10 6 11
10 3 10 -7 0 -13 7 -13 15 0 8 6 15 13 15 8 0 7 4 -3 10 -13 9 -13 10 0 10 13
0 13 1 0 10 -11 7 -11 10 -2 10 9 0 10 5 3 18 -6 11 -6 24 1 36 8 14 7 17 -1
12 -6 -4 -11 -3 -11 3 0 5 6 12 13 14 9 4 9 6 -1 6 -10 1 -10 6 -2 21 6 11 7
20 2 20 -9 0 -7 82 2 107 3 8 1 11 -4 8 -6 -3 -10 -1 -10 4 0 6 6 11 13 11 8
0 7 4 -3 10 -13 9 -13 10 0 10 13 0 13 1 0 10 -13 9 -13 10 0 10 12 0 13 2 1
9 -11 7 -11 9 0 14 10 4 10 6 2 6 -7 1 -13 6 -13 12 0 5 6 7 13 3 9 -6 9 -5 0
7 -10 12 -10 18 0 29 9 10 9 11 0 6 -7 -4 -13 -3 -13 3 0 5 6 12 13 14 9 4 9
6 0 6 -16 1 -17 35 -2 63 8 15 8 19 0 14 -15 -9 -15 39 0 66 8 15 8 19 0 14
-6 -4 -11 0 -11 9 0 9 4 14 8 11 5 -3 9 1 9 9 0 8 -4 12 -9 9 -4 -3 -8 4 -8
15 0 12 6 21 13 21 8 0 8 3 2 8 -12 8 -13 27 -3 38 4 4 3 13 -3 21 -9 10 -8
13 2 13 11 0 11 2 0 9 -12 8 -13 14 -3 36 7 16 8 24 2 20 -12 -7 -7 36 6 57 6
10 5 10 -7 1 -11 -9 -14 -7 -14 13 0 13 2 24 6 24 7 0 3 106 -5 118 -3 6 -3
13 1 15 5 3 7 29 6 59 -1 29 2 68 7 86 5 18 5 30 0 27 -5 -3 -8 4 -7 15 1 11
6 20 12 20 5 0 3 5 -5 10 -13 9 -13 10 0 10 9 0 11 3 5 8 -6 4 -11 25 -11 47
0 22 5 43 11 47 6 5 5 8 -4 8 -10 0 -11 3 -2 14 9 11 9 16 0 21 -8 6 -7 10 2
16 10 6 11 9 2 9 -17 0 -17 27 -1 33 10 4 10 6 1 6 -7 1 -13 6 -13 12 0 5 5 7
11 3 6 -3 3 8 -5 25 -13 23 -13 31 -4 31 9 0 8 3 -2 10 -12 8 -12 10 -1 10 11
0 11 3 1 15 -7 9 -10 18 -7 22 4 3 2 12 -4 19 -9 11 -7 15 6 20 12 5 13 9 5
14 -7 4 -13 22 -15 39 -2 29 5 36 29 32 5 -1 4 4 -2 12 -9 10 -9 17 1 26 6 7
8 12 2 11 -5 -2 -17 -2 -25 -1 -13 1 -13 2 0 11 13 9 13 10 0 10 -11 0 -16 10
-16 34 0 19 3 33 7 31 3 -2 5 7 5 21 -1 14 -7 29 -14 33 -7 4 -15 17 -17 29
-3 12 -7 32 -10 43 -2 12 -7 24 -9 27 -3 2 0 14 6 26 10 20 10 20 -7 6 -17
-14 -17 -14 -7 7 9 16 9 22 0 25 -6 2 -12 21 -12 41 -1 20 -4 37 -8 37 -4 0
-4 7 -1 17 4 11 3 14 -5 9 -8 -5 -12 0 -13 13 -1 12 -3 24 -4 29 -1 4 -6 22
-10 40 -4 18 -11 35 -15 37 -5 3 -6 15 -3 28 3 16 2 18 -5 9 -7 -10 -12 -2
-20 29 -6 24 -8 47 -5 52 3 6 1 7 -5 3 -12 -7 -27 28 -18 43 3 5 -3 11 -14 14
-12 3 -20 14 -20 27 0 13 -4 19 -11 14 -8 -5 -10 1 -7 19 4 19 1 24 -10 19
-10 -3 -13 -1 -8 6 4 7 2 12 -3 12 -6 0 -11 5 -11 11 0 5 5 7 12 3 7 -4 8 -3
4 5 -4 6 -11 9 -16 6 -11 -7 -82 93 -75 106 4 5 1 8 -7 7 -7 -2 -12 5 -12 15
1 10 0 16 -3 13 -6 -6 -61 65 -82 106 -8 15 -23 30 -33 34 -11 3 -17 8 -14 11
3 3 -4 14 -15 24 -12 10 -18 22 -15 27 2 4 -8 16 -24 26 -17 9 -35 26 -41 38
-8 15 -8 19 0 14 6 -4 11 -3 11 2 0 5 -9 12 -21 15 -14 4 -18 10 -13 19 4 7 4
10 -1 6 -9 -8 -61 61 -57 75 1 5 -2 6 -7 3 -10 -6 -26 22 -22 39 2 5 0 7 -4 3
-10 -10 -60 52 -59 73 1 9 -13 24 -30 34 l-31 17 27 -26 c16 -15 28 -30 28
-33 0 -4 -14 6 -30 22 -17 16 -28 35 -26 42 3 7 1 14 -4 14 -6 1 -14 2 -19 3
-5 0 -13 5 -18 10 -4 5 -3 6 4 2 6 -3 14 -2 18 4 3 6 -4 10 -18 10 -14 0 -31
8 -38 18 -11 14 -11 15 1 5 20 -18 34 -16 16 2 -8 8 -21 15 -28 15 -7 0 -22 8
-33 17 -19 15 -19 15 -1 9 19 -7 19 -6 1 14 -10 11 -25 20 -33 20 -8 0 -21 8
-29 18 -8 9 -11 11 -7 3 5 -9 3 -12 -4 -7 -7 4 -12 14 -12 21 0 17 -34 37 -45
27 -5 -4 -5 1 -2 10 3 10 3 17 -1 16 -12 -2 -46 15 -66 34 -22 20 -41 24 -30
6 5 -7 3 -8 -5 -4 -7 5 -10 10 -7 13 3 3 -5 14 -17 23 -16 13 -24 15 -29 7 -6
-9 -8 -9 -8 0 0 12 -70 58 -82 55 -5 -1 -8 2 -8 8 0 5 -7 10 -16 10 -9 0 -12
5 -8 12 4 7 3 8 -4 4 -7 -4 -18 -4 -24 1 -7 4 -16 8 -20 9 -5 1 -10 3 -13 4
-3 1 -8 3 -12 4 -5 1 -21 10 -37 21 -16 11 -37 20 -45 20 -9 0 -15 6 -13 13 1
8 -2 11 -8 7 -6 -3 -8 -10 -5 -15 3 -5 -8 -3 -25 3 -16 6 -30 15 -30 19 0 4
-9 5 -20 3 -11 -2 -22 1 -25 6 -4 5 -11 7 -16 4 -5 -4 -9 -2 -9 3 0 6 -10 8
-22 4 -14 -3 -19 -1 -14 6 4 8 2 10 -7 6 -8 -3 -18 0 -22 6 -5 8 -11 8 -21 -1
-11 -9 -15 -8 -20 5 -5 12 -10 14 -19 6 -9 -7 -15 -7 -19 -1 -4 5 -16 8 -27 6
-15 -3 -19 0 -15 11 4 10 2 13 -7 7 -17 -11 -81 -10 -89 2 -5 6 -8 5 -8 -3 0
-8 -5 -10 -12 -5 -17 10 -59 12 -52 2 2 -4 -8 -6 -23 -3 -15 3 -31 11 -35 17
-6 9 -8 9 -8 0 0 -6 -8 -10 -17 -8 -10 1 -23 -2 -30 -7 -7 -6 -15 -3 -22 9 -6
11 -11 13 -11 5 0 -8 -5 -10 -12 -5 -20 12 -31 11 -57 -5 -13 -8 -20 -9 -17
-3 10 15 -7 14 -23 -1 -11 -11 -12 -10 -6 1 6 11 4 13 -9 8 -14 -6 -17 -3 -12
8 4 11 2 14 -7 8 -19 -12 -47 -14 -47 -4 0 5 -3 16 -6 24 -4 11 2 14 23 12 24
-2 29 2 29 21 0 12 -4 20 -8 18 -5 -3 -6 -9 -3 -14 3 -5 2 -11 -3 -13 -4 -3
-13 6 -19 20 -10 21 -10 24 2 19 8 -3 14 0 12 7 -1 7 4 11 12 9 11 -2 12 0 3
11 -8 9 -8 17 -2 25 7 9 7 9 -2 2 -7 -6 -13 -16 -13 -23 -1 -7 -6 -11 -13 -10
-7 2 -12 -3 -13 -10 0 -6 -4 -3 -9 8 -6 14 -9 15 -9 5 -1 -9 -10 -16 -22 -16
-19 0 -19 1 -3 13 10 7 13 13 8 13 -22 0 -12 41 12 50 13 5 24 17 24 25 0 9 4
14 8 11 4 -2 23 11 41 30 19 19 47 44 63 56 16 13 41 33 56 46 67 57 105 88
222 178 69 53 135 101 148 107 12 6 22 14 22 19 0 4 5 8 11 8 6 0 23 9 37 21
15 11 49 36 76 55 l50 34 -3125 -1 c-1718 -1 -3155 -5 -3194 -10z m5531 -624
c-1 -8 -5 -18 -9 -21 -14 -15 -6 -23 21 -20 30 3 52 -10 52 -30 0 -8 -6 -13
-12 -11 -8 1 -13 -9 -12 -28 1 -17 -1 -22 -4 -10 l-4 20 -9 -20 c-7 -18 -8
-18 -8 -2 -1 10 -6 15 -11 12 -6 -4 -7 -11 -4 -17 4 -6 2 -8 -3 -5 -6 4 -9 23
-6 42 3 26 1 35 -9 33 -8 -2 -12 4 -10 16 2 12 -1 16 -9 10 -8 -5 -10 -3 -4 7
23 39 45 53 41 24z m-41 -74 c3 -5 2 -12 -3 -15 -5 -3 -9 1 -9 9 0 17 3 19 12
6z m685 -148 c366 -92 683 -272 925 -524 257 -269 423 -597 444 -878 5 -64 7
-1376 4 -2916 -5 -3110 1 -2885 -74 -3108 -94 -283 -222 -482 -451 -703 -91
-87 -262 -224 -244 -195 4 5 -23 -8 -59 -30 -36 -22 -86 -49 -110 -61 -25 -12
-45 -26 -45 -31 0 -4 -4 -6 -8 -3 -5 3 -20 -1 -34 -8 -40 -21 -263 -95 -337
-112 -133 -31 -23 -31 -4096 -24 -902 1 -1680 6 -1730 11 -96 8 -205 34 -295
68 -30 12 -63 21 -73 21 -11 0 -15 4 -11 12 4 7 3 8 -4 4 -15 -9 -123 47 -262
136 -116 75 -129 84 -229 172 -165 145 -230 221 -362 428 -116 181 -184 342
-223 528 -34 160 -37 437 -34 3160 3 2539 5 2689 22 2760 95 401 323 744 666
1002 124 93 377 223 515 264 186 55 7 52 3125 50 l2895 -2 85 -21z"/>
<path d="M7448 9530 c-3 -17 1 -27 9 -27 7 0 11 2 8 5 -2 2 6 13 18 23 12 10
20 19 17 20 -37 8 -48 4 -52 -21z m37 10 c-3 -5 -12 -10 -18 -10 -7 0 -6 4 3
10 19 12 23 12 15 0z"/>
<path d="M3706 9061 c-3 -5 -310 -9 -688 -10 -376 -1 -724 -6 -775 -11 -166
-17 -340 -84 -504 -195 -46 -32 -89 -58 -96 -58 -7 0 -10 -4 -7 -8 6 -11 -37
-39 -50 -32 -6 3 -8 3 -4 -2 5 -5 -36 -54 -90 -109 -54 -56 -122 -135 -151
-176 -29 -41 -57 -74 -63 -72 -5 1 -7 -2 -4 -7 8 -13 -4 -42 -15 -35 -5 3 -9
2 -8 -3 4 -21 -2 -34 -13 -27 -6 4 -8 3 -5 -3 4 -6 -6 -37 -22 -70 -16 -32
-40 -91 -55 -131 -57 -159 -55 -83 -57 -2070 -1 -1007 -5 -1830 -8 -1828 -8 5
-5 -116 4 -146 5 -18 4 -20 -4 -8 -16 23 -9 -1608 7 -1715 32 -203 98 -380
203 -541 237 -361 542 -585 916 -671 74 -17 209 -18 2907 -16 3081 2 2892 -1
3064 57 102 35 192 77 186 87 -3 5 3 6 12 2 13 -5 15 -3 9 7 -5 9 -4 11 3 6
16 -9 104 43 95 56 -3 7 -1 8 6 4 14 -9 83 32 75 45 -3 5 -1 8 5 7 15 -4 122
82 115 93 -3 5 0 8 8 7 7 -2 12 3 10 10 -1 6 4 11 10 10 7 -2 12 3 10 10 -1 6
4 11 10 10 7 -2 12 3 10 10 -1 6 4 11 10 10 7 -2 12 3 10 10 -1 8 2 11 7 8 12
-8 42 34 35 46 -3 5 0 7 8 6 7 -2 12 3 10 10 -1 8 2 11 7 8 13 -8 120 152 175
263 63 124 101 246 116 361 8 70 10 833 8 2915 l-3 2820 -22 70 c-73 236 -209
453 -391 627 -99 95 -261 216 -238 179 5 -7 1 -9 -8 -5 -9 3 -14 9 -11 13 2 4
-10 16 -27 26 -17 10 -28 13 -24 7 5 -8 2 -10 -8 -6 -9 3 -13 10 -10 15 5 9
-9 13 -34 10 -7 -1 -15 5 -18 13 -3 9 -12 12 -21 9 -11 -4 -14 -2 -9 5 7 12
-11 17 -43 13 -7 -2 -10 2 -6 8 7 12 -4 14 -45 12 -18 -1 -21 1 -12 7 10 7 7
11 -12 14 -14 3 -23 2 -21 -3 3 -4 -4 -5 -15 -2 -11 3 -17 10 -13 16 3 5 1 7
-4 4 -6 -4 -32 -4 -58 0 -28 3 -41 9 -34 14 18 11 98 10 -1998 12 -1045 1
-1900 4 -1898 7 2 3 -5 6 -15 6 -10 0 -16 -4 -13 -9 3 -5 -2 -5 -12 1 -11 5
-30 6 -46 2 -19 -6 -29 -4 -33 3 -3 8 -5 7 -5 -2 -1 -11 -4 -11 -18 0 -13 11
-15 11 -9 1 10 -16 -25 -13 -36 3 -5 6 -8 5 -8 -2 0 -7 -9 -13 -21 -13 -11 0
-18 4 -15 8 4 7 -44 9 -51 2 -8 -7 -29 -4 -35 5 -5 7 -8 7 -8 -1 0 -12 -58
-13 -77 -1 -6 4 -14 3 -18 -3 -3 -5 -11 -10 -16 -10 -6 0 -7 5 -4 10 3 6 4 10
1 10 -3 0 -7 -4 -10 -9z m4314 -185 c153 -35 281 -88 425 -174 77 -46 200
-140 244 -186 19 -19 39 -32 45 -29 6 3 8 3 4 -2 -10 -10 11 -37 23 -29 5 3 6
-1 4 -8 -3 -8 11 -31 31 -53 20 -22 50 -57 66 -78 16 -20 34 -35 39 -32 5 4 6
0 3 -8 -3 -8 3 -20 13 -28 17 -13 17 -13 3 6 -14 18 -14 19 2 7 9 -7 15 -22
13 -34 -3 -11 -2 -18 2 -14 3 3 12 1 20 -5 11 -9 11 -15 1 -28 -7 -9 -8 -13
-4 -9 5 4 16 2 24 -5 13 -10 14 -9 7 2 -5 10 -4 12 4 7 7 -5 9 -16 5 -28 -3
-11 -2 -18 3 -15 4 3 17 -15 28 -39 11 -24 23 -44 27 -44 5 0 8 -7 8 -16 0 -8
4 -12 10 -9 5 3 7 0 4 -9 -3 -8 -1 -23 4 -33 14 -27 22 -156 22 -353 -1 -546
-6 -946 -13 -957 -4 -6 -3 -14 3 -18 6 -4 7 -11 4 -17 -9 -14 -11 -70 -14
-375 -2 -134 -7 -240 -11 -237 -5 3 -9 -8 -9 -25 0 -16 -3 -38 -6 -48 -5 -16
-4 -16 10 2 16 19 16 19 12 -5 -2 -14 -8 -24 -14 -23 -5 1 -9 -21 -9 -52 1
-40 4 -52 12 -45 8 7 12 5 12 -5 0 -7 -5 -13 -11 -12 -5 1 -10 -14 -11 -35 0
-20 -2 -34 -5 -31 -9 9 -6 292 3 290 5 -1 12 4 14 11 3 8 -2 10 -14 6 -14 -5
-15 -4 -3 4 9 7 15 31 16 67 1 31 -1 54 -4 51 -2 -3 -6 -26 -7 -51 -3 -66 -13
-66 -13 0 1 30 5 58 9 61 5 3 9 11 9 17 0 7 -4 6 -10 -3 -7 -11 -10 3 -10 47
0 34 -4 64 -9 68 -13 7 -16 -122 -19 -772 -1 -356 1 -543 8 -543 6 0 10 -5 10
-11 0 -5 -4 -7 -10 -4 -6 4 -10 -9 -11 -32 0 -21 -2 -60 -5 -86 -3 -32 -1 -46
6 -42 5 3 10 1 10 -4 0 -6 -4 -11 -10 -11 -5 0 -10 -7 -10 -16 0 -14 2 -15 18
-3 16 13 16 13 0 -6 -16 -19 -17 -100 -12 -1200 2 -736 1 -1216 -6 -1275 -14
-143 -65 -279 -160 -434 -155 -255 -422 -470 -693 -561 -168 -56 -150 -55
-1683 -53 l-1409 3 -2 260 c-1 143 2 292 6 330 5 39 9 64 10 57 0 -7 5 -10 11
-7 6 3 10 1 10 -5 0 -7 7 -10 15 -6 8 3 15 0 15 -7 0 -9 3 -8 9 1 12 20 16 19
40 -2 16 -14 20 -16 16 -5 -7 19 29 19 47 1 8 -8 15 -9 25 -1 7 7 13 8 13 4 0
-5 10 0 22 11 12 10 18 13 14 7 -4 -7 -2 -13 4 -13 6 0 8 -6 4 -12 -4 -7 2 -5
13 5 14 12 23 15 28 8 3 -6 11 -11 17 -11 6 0 5 7 -3 18 -13 15 -12 16 4 3 9
-8 20 -11 23 -8 3 3 17 1 31 -4 22 -8 24 -7 19 8 -6 14 -5 16 5 5 15 -14 33
-16 24 -3 -3 5 -1 12 4 15 5 4 12 2 16 -4 4 -6 11 -7 17 -4 6 4 8 2 5 -3 -4
-6 0 -13 8 -16 10 -4 12 -1 8 10 -5 13 -3 14 17 3 15 -8 20 -8 16 -1 -9 13 4
14 24 1 9 -5 19 -5 27 1 7 6 18 7 25 3 9 -6 9 -3 -1 9 -12 15 -12 17 3 11 9
-3 16 -11 16 -17 0 -6 6 -3 13 8 11 14 16 15 22 5 6 -9 4 -11 -5 -5 -9 6 -11
4 -5 -5 6 -10 11 -9 22 5 7 11 13 15 13 11 0 -5 8 -2 17 5 10 8 14 9 10 2 -5
-8 0 -11 13 -10 13 1 19 6 15 15 -3 10 1 9 17 -2 20 -14 24 -14 42 2 14 12 17
13 11 2 -6 -12 -5 -12 5 -3 7 6 19 9 26 6 9 -3 12 0 9 9 -4 9 0 15 9 15 8 0
13 -4 11 -8 -3 -4 2 -9 10 -12 10 -4 12 -1 8 10 -4 11 -2 14 5 9 7 -4 12 -2
12 6 0 9 3 9 10 -2 9 -13 10 -13 10 0 0 13 1 13 10 0 8 -12 10 -12 10 -1 0 11
3 11 15 1 13 -11 14 -10 9 5 -5 13 -4 16 4 11 6 -4 22 -1 34 5 22 12 22 11 8
-7 -12 -16 -10 -15 10 2 14 12 31 19 39 16 9 -3 11 0 7 7 -4 6 -4 11 1 10 22
-4 54 2 49 9 -3 5 1 9 9 9 8 0 12 -3 10 -7 -3 -4 11 0 30 8 19 9 35 20 35 24
0 5 10 4 21 -3 12 -6 19 -7 15 -1 -3 5 1 13 10 16 10 4 13 2 9 -7 -4 -6 3 -1
15 13 12 14 18 18 14 10 -6 -12 -5 -13 8 -3 8 7 18 10 21 6 4 -3 7 -1 7 6 0 7
4 10 9 7 5 -3 11 1 15 9 3 8 12 12 21 9 8 -4 21 -1 29 5 7 6 17 7 21 3 5 -4 5
-1 1 6 -4 7 -1 12 9 12 9 0 13 4 10 10 -3 6 1 7 9 4 9 -4 16 -1 16 6 0 9 3 10
14 1 10 -9 17 -7 27 6 13 17 13 17 -6 3 -17 -12 -18 -12 -7 0 13 15 17 16 48
19 8 0 13 5 10 10 -3 5 1 12 10 15 10 4 13 2 8 -7 -6 -9 -5 -9 8 0 8 7 19 9
23 5 5 -4 5 -2 2 4 -4 7 1 18 10 25 14 12 16 12 9 -1 -4 -9 -2 -8 7 2 8 10 17
15 20 11 4 -3 7 -1 7 5 0 7 7 12 15 12 8 0 15 5 15 11 0 5 5 7 10 4 6 -3 10 2
10 11 0 10 3 14 7 11 3 -4 15 1 26 10 15 13 18 14 13 3 -4 -8 2 -4 13 9 12 13
21 20 21 15 0 -4 7 1 16 12 8 10 12 12 8 4 -7 -13 -5 -13 9 -1 9 7 14 18 10
24 -3 6 -1 7 5 3 7 -4 12 -2 12 5 0 7 3 10 6 6 4 -3 12 -1 19 6 6 7 36 32 66
57 29 25 72 64 96 86 24 23 43 39 43 37 0 -5 6 1 67 69 23 25 44 43 47 40 3
-3 6 0 6 7 0 14 102 117 112 113 5 -1 7 1 7 6 -3 19 2 33 10 27 5 -3 12 4 16
15 3 11 22 37 42 59 19 22 33 41 32 43 -6 6 35 47 43 42 4 -3 5 1 2 9 -3 8 2
20 11 27 8 7 15 19 15 27 0 8 5 11 10 8 6 -3 10 -1 10 6 0 7 11 27 25 44 13
18 21 35 18 39 -4 3 -1 6 5 6 7 0 12 5 12 11 0 6 17 37 38 68 21 32 44 72 51
89 8 18 17 32 22 32 5 0 8 3 7 8 -3 8 26 78 42 102 16 24 80 196 80 214 0 9 5
16 11 16 5 0 8 4 5 9 -4 5 -1 22 6 38 6 15 10 34 9 42 -1 7 2 11 7 7 5 -3 8 5
7 17 -1 12 2 27 6 33 5 6 12 31 15 55 8 66 9 73 17 85 3 6 9 37 12 70 3 32 8
79 11 104 10 74 10 449 1 530 -4 41 -9 96 -11 121 -1 25 -5 50 -8 55 -7 12
-22 83 -24 114 0 14 -4 33 -9 43 -4 10 -5 20 -2 23 3 3 -1 21 -9 39 -7 19 -11
41 -8 49 3 9 2 16 -4 16 -5 0 -12 9 -15 20 -3 13 -1 18 6 13 7 -4 4 5 -6 20
-10 15 -15 33 -11 39 4 7 3 8 -4 4 -8 -5 -13 2 -14 21 -2 40 -2 43 -26 96 -12
27 -22 55 -22 62 0 8 -4 17 -10 20 -5 3 -10 13 -10 21 0 22 -126 268 -186 364
-29 47 -67 110 -85 140 -27 47 -79 118 -112 155 -5 6 4 -17 21 -50 93 -187
175 -418 210 -590 36 -178 46 -293 46 -545 0 -206 -4 -265 -22 -370 -28 -163
-79 -349 -137 -496 -48 -122 -170 -369 -205 -414 -35 -46 -28 -16 13 55 100
174 206 436 261 648 51 194 89 571 62 606 -9 12 -8 13 4 6 12 -6 13 -5 3 6 -7
7 -13 26 -13 41 0 15 -4 28 -10 28 -5 0 -10 5 -10 11 0 5 4 7 10 4 6 -4 7 1 3
11 -5 15 -7 15 -16 -2 -7 -12 -6 -23 2 -35 6 -11 11 -22 11 -26 0 -5 -4 -1
-10 7 -7 12 -12 11 -30 -5 -16 -14 -21 -15 -18 -5 2 8 -3 14 -10 12 -8 -1 -11
2 -8 7 4 5 2 12 -3 15 -4 3 -8 17 -8 30 0 18 4 23 18 21 10 -2 21 0 24 5 3 5
-3 7 -13 5 -22 -4 -37 4 -45 25 -4 8 -5 0 -3 -17 3 -18 0 -33 -5 -33 -6 0 -9
6 -7 13 2 6 -2 12 -7 12 -6 0 -9 -3 -8 -6 1 -3 -4 -6 -12 -6 -8 0 -13 3 -13 6
1 3 -4 18 -10 34 -12 29 -28 38 -18 10 4 -11 -1 -8 -13 7 -11 13 -17 28 -15
32 2 3 0 9 -5 12 -15 10 -24 -13 -11 -29 8 -10 8 -15 -2 -21 -7 -4 -10 -4 -6
1 4 4 3 14 -2 21 -6 6 -10 16 -9 20 3 20 -1 35 -9 30 -5 -3 -9 0 -10 7 0 7 -4
23 -7 37 -5 20 -5 22 5 10 10 -13 11 -13 7 0 -2 8 -10 15 -18 15 -8 0 -13 8
-11 17 1 9 -2 19 -7 22 -5 3 -8 -14 -6 -39 1 -25 -2 -42 -7 -39 -5 3 -7 12 -4
20 3 8 1 24 -5 36 l-10 23 5 -22 c2 -13 0 -26 -5 -29 -9 -5 -13 9 -10 34 1 6
-3 12 -10 12 -7 0 -9 10 -7 24 4 18 1 23 -10 18 -10 -3 -13 -1 -8 6 3 6 1 14
-5 18 -8 5 -10 -3 -6 -27 28 -150 35 -401 17 -580 -63 -622 -418 -1190 -977
-1565 -113 -76 -334 -187 -477 -239 -442 -162 -978 -176 -1409 -35 -240 79
-549 252 -752 421 -150 125 -340 339 -425 477 -57 93 -46 64 38 -103 8 -16 28
-49 44 -73 15 -24 28 -48 29 -55 0 -7 13 -32 29 -57 16 -25 42 -67 59 -95 16
-27 45 -68 65 -90 20 -22 36 -43 36 -46 0 -3 25 -36 55 -74 30 -38 53 -71 50
-73 -2 -3 7 -14 21 -24 14 -11 23 -23 20 -25 -3 -3 17 -27 44 -53 31 -30 45
-50 37 -53 -6 -3 -2 -6 11 -6 13 -1 21 -5 18 -10 -3 -5 1 -11 9 -15 8 -3 15
-13 15 -21 0 -10 5 -13 12 -9 8 5 9 2 5 -10 -4 -10 -3 -15 3 -11 6 3 10 1 10
-6 0 -7 3 -10 6 -6 8 7 60 -54 56 -66 -1 -5 2 -5 8 -2 15 9 52 -25 46 -41 -3
-9 1 -11 12 -7 15 6 15 5 3 -10 -12 -15 -12 -17 1 -12 8 3 21 -2 29 -12 13
-17 13 -17 -6 -3 -19 14 -19 14 -6 -3 8 -10 21 -15 29 -12 13 5 13 3 1 -12 -8
-9 -9 -14 -3 -10 14 8 37 -16 26 -28 -4 -5 -1 -5 6 -1 6 4 12 2 12 -3 0 -6 8
-11 18 -12 9 0 12 -3 5 -6 -14 -5 29 -53 48 -53 6 0 8 -7 5 -16 -3 -8 -2 -12
4 -9 6 3 10 1 10 -5 0 -6 4 -9 9 -6 5 3 14 -1 21 -9 7 -8 9 -15 5 -15 -5 0 0
-9 10 -20 17 -19 17 -19 -11 -11 -199 58 -598 286 -814 466 -357 297 -676 822
-795 1305 -126 513 -124 950 6 1404 205 712 691 1288 1364 1616 334 163 639
243 975 258 l155 7 0 635 c0 412 4 638 10 643 6 4 658 6 1450 4 1335 -3 1445
-4 1515 -21z m-3840 4 c0 -5 -9 -7 -20 -5 -11 2 -20 -1 -20 -7 0 -7 -4 -7 -12
-1 -11 8 -52 10 -60 3 -8 -6 -39 -7 -42 -2 -5 9 -320 7 -334 -2 -6 -3 -12 -3
-15 1 -2 5 -2 2 -1 -4 2 -7 -1 -13 -7 -13 -6 0 -7 -4 -4 -10 3 -6 -1 -7 -10
-3 -12 4 -13 8 -5 13 7 4 9 13 6 19 -4 6 -11 9 -15 7 -4 -3 -24 -6 -44 -8 -20
-1 -33 -6 -31 -10 3 -5 11 -5 17 -2 7 4 8 3 4 -2 -4 -4 -20 -9 -35 -9 -15 0
-26 -5 -25 -11 1 -6 -5 -11 -12 -11 -10 0 -12 4 -5 12 5 7 7 15 4 18 -4 4 3 5
15 2 11 -2 21 0 21 4 0 4 -20 8 -44 7 -25 0 -42 -4 -40 -8 3 -4 11 -5 19 -1 8
3 15 0 15 -6 0 -6 -3 -10 -7 -10 -21 3 -24 -3 -12 -18 12 -16 12 -17 -2 -6 -9
7 -20 9 -25 5 -4 -4 -3 0 4 9 10 14 10 18 -3 23 -9 3 -13 2 -10 -4 3 -6 -1 -7
-9 -4 -10 4 -16 1 -16 -7 0 -7 -3 -9 -6 -6 -4 4 -1 13 5 21 10 11 9 14 -1 12
-7 -1 -19 -5 -25 -9 -7 -5 -13 -4 -13 2 0 6 -10 0 -23 -12 -13 -12 -22 -25
-19 -30 2 -4 -2 -6 -10 -5 -7 2 -12 -2 -11 -8 1 -6 -5 -11 -13 -11 -11 0 -9 6
6 22 11 12 17 25 13 30 -5 4 -3 5 4 1 6 -3 14 -2 17 3 10 16 -20 6 -38 -12
-20 -20 -33 -23 -18 -4 9 10 4 13 -19 12 -16 0 -29 -3 -29 -7 0 -5 7 -8 16 -8
13 0 14 -3 5 -13 -6 -8 -8 -17 -4 -21 4 -4 -1 -4 -11 0 -10 4 -13 10 -8 13 6
4 4 11 -4 19 -12 10 -14 10 -14 -3 0 -8 -3 -14 -7 -13 -14 2 -43 -14 -38 -21
2 -4 -2 -8 -10 -8 -8 0 -12 4 -9 8 2 4 -6 9 -18 11 -13 2 -22 8 -21 14 1 6 -4
11 -12 11 -8 0 -12 -4 -9 -8 2 -4 0 -10 -6 -14 -6 -4 -7 -11 -4 -17 4 -7 2 -8
-4 -4 -6 4 -9 13 -6 20 3 8 1 16 -4 20 -5 3 -8 -8 -7 -24 1 -16 -2 -27 -7 -24
-5 4 -7 12 -4 20 3 7 0 16 -6 20 -7 4 -8 3 -4 -4 4 -7 2 -12 -4 -12 -6 0 -9
-4 -6 -9 3 -5 -1 -14 -9 -21 -12 -10 -13 -8 -10 9 2 12 7 27 10 34 4 6 0 4 -8
-5 -8 -10 -16 -15 -19 -12 -4 3 -9 0 -14 -7 -4 -7 -3 -10 4 -5 12 7 10 -20 -3
-31 -4 -4 -5 -3 -1 4 3 6 1 15 -5 18 -5 4 -8 13 -6 19 3 7 -1 13 -8 13 -7 0
-11 -6 -8 -14 3 -7 0 -13 -6 -13 -6 0 -10 -5 -9 -11 5 -19 -32 -19 -42 0 -6
13 -5 18 5 18 7 0 11 -7 8 -16 -3 -12 -1 -11 11 3 17 21 11 43 -7 28 -7 -5
-20 -8 -30 -7 -13 3 -15 0 -9 -8 6 -8 2 -20 -13 -35 -16 -17 -22 -19 -22 -8 0
8 4 13 9 10 4 -3 8 2 8 10 0 9 -6 15 -12 14 -7 -2 -12 3 -10 11 3 12 0 12 -12
2 -10 -8 -16 -9 -21 -1 -4 7 -11 8 -18 2 -7 -5 -20 -8 -30 -7 -9 2 -15 0 -12
-5 6 -9 24 -8 42 3 6 4 14 3 18 -3 4 -6 10 -8 14 -6 4 3 7 -6 7 -19 0 -19 -3
-22 -13 -13 -7 5 -10 14 -7 19 3 5 -2 9 -11 9 -9 0 -14 -4 -10 -9 3 -5 1 -13
-5 -16 -6 -4 -9 -2 -8 3 2 6 -1 10 -7 11 -5 1 -10 -3 -10 -8 0 -5 -3 -13 -7
-17 -4 -3 -6 3 -3 14 4 23 -7 29 -50 27 -18 0 -29 -6 -27 -13 1 -7 -3 -12 -9
-12 -5 0 -8 -4 -5 -9 3 -5 -3 -20 -15 -32 l-20 -24 17 28 c9 15 14 27 10 27
-3 0 -9 0 -13 0 -5 0 -8 -4 -8 -9 0 -6 -7 -16 -15 -23 -12 -11 -12 -11 -2 3 6
9 8 19 4 23 -4 4 -8 12 -8 17 -1 5 -2 12 -3 15 0 4 -8 0 -18 -7 -20 -17 -16
-17 -38 1 -11 8 -16 10 -12 4 3 -6 -8 -24 -26 -40 -18 -16 -27 -23 -20 -15 6
7 9 21 6 30 -4 12 -3 13 5 3 8 -11 10 -11 15 0 3 9 -3 14 -17 14 -16 0 -22 -6
-22 -20 1 -12 -5 -20 -11 -18 -16 3 -17 -10 -1 -26 7 -7 9 -12 5 -12 -3 0 -18
17 -32 37 -14 21 -25 31 -25 22 0 -8 5 -20 10 -25 7 -7 6 -11 -4 -11 -8 0 -14
3 -12 6 2 3 0 15 -5 26 l-8 20 -1 -20 c-2 -11 -1 -24 0 -30 1 -5 -2 -7 -6 -3
-4 4 -12 3 -19 -2 -8 -7 -12 -5 -12 5 0 7 5 13 10 12 5 -1 12 4 14 11 3 8 -1
10 -13 5 -13 -5 -15 -3 -9 7 5 9 4 11 -4 6 -6 -4 -9 -11 -7 -15 3 -4 1 -13 -4
-21 -5 -9 -5 -19 2 -27 18 -22 2 -14 -18 9 -10 12 -13 18 -6 14 14 -8 12 28
-3 41 -4 5 -5 3 -1 -4 3 -6 2 -14 -4 -18 -5 -3 -10 0 -10 7 0 9 -3 9 -10 -2
-5 -8 -10 -11 -10 -6 0 5 -6 3 -13 -3 -8 -6 -17 -7 -21 -3 -4 4 -6 3 -4 -3 2
-5 -1 -11 -7 -11 -5 -1 -9 2 -7 8 1 5 -2 7 -8 3 -6 -4 -4 -14 5 -29 8 -12 12
-25 9 -29 -8 -8 -34 3 -34 15 0 5 5 6 12 2 7 -4 8 -3 4 5 -6 9 -11 9 -22 0 -7
-6 -11 -16 -7 -22 3 -6 1 -7 -5 -3 -11 7 -17 -6 -13 -27 1 -5 -3 -6 -9 -2 -6
3 -8 10 -5 15 10 16 14 71 5 65 -5 -3 -6 -13 -3 -22 4 -11 3 -14 -5 -9 -7 4
-12 15 -13 24 0 10 -3 12 -5 5 -3 -7 -1 -21 5 -31 8 -15 7 -23 -5 -33 -8 -7
-14 -8 -12 -3 2 5 -1 9 -7 9 -5 0 -9 -4 -7 -8 1 -5 -2 -6 -7 -3 -5 4 -13 2
-16 -4 -5 -8 -12 -7 -23 2 -14 11 -15 10 -8 -7 5 -14 4 -17 -4 -9 -8 8 -8 19
0 38 6 17 6 25 0 21 -6 -3 -10 -12 -10 -20 0 -14 -17 -15 -39 -1 -9 6 -12 5
-7 -2 3 -6 2 -13 -4 -17 -5 -3 -10 -11 -10 -18 0 -6 7 -2 15 9 8 10 14 15 14
9 0 -5 -6 -19 -14 -29 -8 -10 -12 -23 -8 -29 3 -6 1 -7 -5 -3 -6 4 -9 12 -6
19 2 7 -3 21 -11 32 -16 19 -16 19 -5 -2 13 -27 3 -30 -16 -5 -13 16 -14 16
-7 -3 6 -18 5 -19 -11 -6 -15 12 -17 12 -14 0 2 -8 -3 -13 -11 -11 -11 2 -12
0 -3 -11 7 -8 9 -17 5 -20 -9 -10 -25 -9 -19 1 3 5 -1 9 -9 9 -8 0 -14 -3 -13
-6 1 -16 -15 -50 -22 -46 -5 3 -12 1 -15 -5 -5 -8 -12 -7 -23 2 -14 10 -15 10
-5 -1 13 -15 6 -44 -8 -35 -5 3 -9 2 -8 -3 4 -22 -3 -31 -21 -28 -11 2 -18 0
-15 -5 3 -5 1 -11 -5 -15 -5 -3 -10 0 -10 7 -1 7 -7 2 -15 -12 -13 -23 -20
-20 -15 5 1 6 -1 7 -5 3 -4 -3 -7 -10 -7 -15 0 -4 -4 -19 -9 -32 -6 -15 -6
-28 1 -36 7 -9 5 -16 -7 -26 -16 -12 -17 -12 -6 2 7 9 10 19 6 22 -11 12 -32
-27 -22 -40 7 -7 6 -14 -1 -18 -6 -4 -10 -3 -9 2 1 4 1 10 -1 13 -1 3 -3 16
-6 30 -3 19 -2 21 6 10 9 -13 10 -13 11 0 1 8 1 19 0 24 -1 5 4 13 11 17 10 7
10 9 0 9 -7 0 -15 -7 -18 -15 -4 -8 -10 -13 -14 -10 -5 3 -7 -22 -6 -55 1 -32
0 -57 -4 -54 -3 3 -6 10 -6 15 -3 23 -6 22 -18 -6 -10 -22 -10 -34 -2 -45 6
-8 1 -6 -12 4 -22 19 -32 10 -11 -11 8 -8 8 -13 0 -18 -6 -3 -10 -2 -9 3 2 6
-1 9 -7 9 -5 -1 -9 -10 -9 -19 1 -10 -2 -15 -7 -13 -4 3 -6 14 -4 25 6 34 -12
22 -20 -12 -4 -18 -7 -37 -6 -41 1 -5 -3 -6 -9 -2 -9 6 -15 -8 -10 -30 1 -5
-8 -1 -19 9 -16 15 -18 22 -9 33 8 10 13 11 18 2 11 -16 21 5 14 28 -5 15 -4
15 5 3 9 -13 11 -13 11 2 0 10 -7 16 -19 15 -12 -1 -17 -6 -13 -16 3 -9 1 -12
-6 -7 -6 3 -13 2 -17 -4 -4 -6 -10 -8 -15 -5 -4 3 -13 -2 -19 -9 -8 -10 -9
-16 -1 -21 5 -3 10 -11 10 -18 0 -8 -3 -8 -12 1 -8 8 -15 9 -25 1 -17 -14 -17
2 0 21 10 12 9 12 -6 0 -10 -7 -16 -19 -13 -26 3 -7 -1 -18 -9 -24 -10 -8 -16
-7 -24 7 -9 16 -10 16 -8 -4 0 -12 5 -19 9 -17 4 3 8 -2 8 -11 0 -9 -5 -13
-10 -10 -6 4 -5 -4 1 -19 15 -32 32 -23 24 13 -6 28 17 62 29 43 3 -6 -1 -12
-9 -16 -8 -3 -15 -11 -14 -18 0 -10 2 -10 6 0 2 6 8 12 13 12 10 0 -17 -57
-31 -65 -5 -4 -6 -11 -3 -17 4 -7 2 -8 -4 -4 -7 4 -12 1 -12 -9 0 -10 5 -13
13 -9 9 6 9 5 0 -8 -7 -8 -10 -17 -7 -21 9 -8 -19 -3 -35 7 -10 7 -12 3 -7
-15 6 -20 5 -21 -4 -6 -6 9 -9 21 -6 25 6 11 -11 38 -19 30 -4 -4 -8 -18 -9
-32 0 -14 -4 -26 -7 -26 -4 0 -12 -38 -19 -85 -14 -100 -26 -113 -17 -19 20
206 116 410 287 609 98 113 135 148 233 220 144 105 334 190 478 214 73 12
1959 13 1959 1z m50 2 c0 -4 -9 -8 -20 -9 -11 -1 -20 2 -20 5 0 4 9 8 20 9 11
1 20 -2 20 -5z m150 -5 c0 -4 -8 -7 -17 -5 -12 2 -17 -2 -15 -12 3 -12 1 -12
-9 -3 -10 10 -17 9 -33 -5 -18 -15 -19 -15 -8 0 9 11 10 18 2 23 -5 3 -10 0
-10 -7 0 -9 -3 -10 -8 -2 -4 6 -15 10 -24 8 -10 -1 -18 1 -18 5 0 4 32 7 70 7
39 -1 70 -5 70 -9z m74 4 c-8 -8 -34 -10 -38 -2 -3 4 6 7 19 7 14 0 22 -2 19
-5z m108 1 c-7 -2 -9 -9 -5 -15 5 -9 3 -9 -8 -1 -8 6 -28 10 -46 9 -17 0 -30
2 -28 5 2 4 25 6 51 6 26 0 42 -2 36 -4z m-861 -35 c-10 -9 -11 -8 -5 6 3 10
9 15 12 12 3 -3 0 -11 -7 -18z m79 8 c0 -2 -9 -3 -19 -2 -11 0 -18 5 -15 9 4
6 34 0 34 -7z m-377 -10 c-3 -9 -8 -14 -10 -11 -3 3 -2 9 2 15 9 16 15 13 8
-4z m227 9 c0 -8 -19 -13 -24 -6 -3 5 1 9 9 9 8 0 15 -2 15 -3z m-264 -32
c-17 -16 -18 -16 -5 5 7 12 15 20 18 17 3 -2 -3 -12 -13 -22z m-253 -27 c4 -8
3 -16 -1 -19 -4 -3 -9 4 -9 15 -2 23 3 25 10 4z m-151 -47 c-8 -8 -9 -4 -5 13
4 13 8 18 11 10 2 -7 -1 -18 -6 -23z m-255 9 c-1 -7 4 -11 11 -9 8 1 11 -2 7
-9 -5 -7 -10 -8 -18 0 -6 6 -15 7 -22 1 -7 -6 -11 -3 -11 9 0 9 8 18 18 18 10
1 17 -4 15 -10z m-112 -17 c-1 -11 -4 -22 -7 -25 -4 -5 -4 34 1 43 4 8 7 -1 6
-18z m-34 1 c6 10 8 7 6 -9 -1 -14 -5 -18 -11 -12 -6 6 -15 5 -24 -3 -13 -11
-14 -9 -1 11 8 12 16 17 18 11 2 -8 6 -7 12 2z m-264 -38 c0 -9 -4 -10 -13 -2
-8 6 -14 6 -18 0 -3 -5 0 -11 6 -14 7 -3 3 -4 -9 -4 -20 1 -21 3 -8 17 18 20
42 22 42 3z m-264 -83 c3 -11 0 -18 -7 -17 -6 1 -10 -4 -8 -11 1 -8 -2 -11 -7
-8 -5 4 -4 16 2 31 14 30 13 30 20 5z m-72 -43 c6 -10 5 -18 -1 -22 -6 -4 -10
-3 -9 2 3 20 -2 34 -11 28 -6 -4 -8 -11 -5 -16 4 -5 1 -17 -5 -26 -9 -15 -10
-14 -4 6 4 16 3 21 -5 17 -6 -4 -11 -16 -11 -26 0 -10 -5 -22 -10 -25 -6 -4
-7 -12 -3 -18 4 -7 -2 -5 -12 3 -17 14 -18 13 -12 -2 5 -15 -16 -43 -32 -43
-3 0 -5 -4 -3 -10 2 -5 -2 -4 -9 3 -19 17 -34 15 -19 -4 11 -12 11 -15 0 -12
-8 2 -14 -2 -15 -9 0 -6 -4 -15 -8 -20 -5 -4 -7 -3 -5 2 2 6 -1 11 -7 12 -5 1
-9 -7 -9 -18 1 -11 -1 -17 -4 -14 -3 2 -12 -1 -21 -8 -14 -10 -14 -10 -4 4 7
9 10 19 6 22 -9 10 -25 9 -19 -1 2 -4 1 -14 -5 -22 -6 -11 -9 -12 -9 -2 0 7
-5 10 -10 7 -6 -4 -7 -11 -4 -17 4 -6 2 -8 -4 -5 -5 4 -8 16 -5 27 3 11 9 17
14 14 5 -3 12 2 15 10 3 9 10 14 14 11 4 -3 13 2 20 10 7 8 16 13 20 10 4 -3
20 13 34 36 15 22 31 37 36 34 6 -4 14 5 20 19 12 32 18 33 30 4 8 -22 9 -22
9 -2 1 11 4 24 9 28 4 4 8 12 8 17 2 16 4 17 20 15 9 -1 20 -10 25 -19z m6898
-201 c-3 -3 -11 5 -18 17 -13 21 -12 21 5 5 10 -10 16 -20 13 -22z m-7402
-204 c-15 -16 -15 -20 -1 -40 8 -12 13 -23 10 -23 -3 -1 -16 -2 -28 -3 -13 -1
-22 -8 -20 -15 1 -7 -2 -19 -8 -25 -5 -7 -6 -17 -2 -21 4 -5 1 -5 -6 -1 -9 5
-10 12 -3 20 10 12 9 41 -2 52 -12 12 4 25 18 14 18 -15 31 6 15 25 -7 8 -10
16 -6 16 3 1 10 2 15 3 5 0 13 4 17 9 16 15 16 6 1 -11z m1188 -343 c91 -25
185 -80 253 -147 67 -66 110 -122 94 -122 -4 0 -14 6 -21 13 -6 6 -3 -9 9 -35
11 -26 17 -54 13 -64 -5 -13 -3 -15 7 -9 10 6 12 4 5 -11 -4 -10 -8 -27 -9
-37 -3 -22 -96 -128 -107 -122 -3 3 -12 -2 -19 -10 -7 -8 -17 -12 -23 -8 -6 4
-7 1 -3 -6 9 -14 -24 -42 -38 -34 -5 4 -6 1 -2 -5 4 -7 3 -12 -2 -12 -5 0 -21
-12 -35 -26 -16 -15 -33 -24 -42 -21 -8 4 -14 1 -12 -6 1 -7 -3 -11 -10 -10
-7 2 -17 -6 -23 -18 -10 -17 -14 -18 -28 -7 -9 7 -13 9 -10 3 3 -5 0 -16 -8
-23 -12 -11 -14 -10 -14 5 0 15 -2 15 -16 -3 -8 -10 -12 -13 -8 -5 5 9 3 12
-4 7 -7 -4 -12 -15 -12 -24 0 -15 -2 -15 -10 -2 -7 11 -10 11 -10 2 0 -7 -4
-11 -9 -7 -5 3 -17 -5 -25 -17 -13 -18 -16 -19 -16 -5 0 9 -4 17 -9 17 -14 0
-32 -26 -23 -35 4 -4 -4 -2 -17 5 -22 11 -23 11 -17 -6 6 -18 5 -18 -9 0 -8
11 -15 14 -15 8 0 -7 -10 -12 -21 -12 -19 0 -20 2 -8 18 10 12 8 12 -10 -3
-21 -18 -75 -30 -65 -14 5 8 -13 6 -39 -6 -9 -4 -29 -5 -43 -2 -18 3 -24 1
-20 -9 3 -8 1 -14 -4 -14 -6 0 -10 8 -10 18 -1 15 -2 15 -17 -3 -14 -18 -15
-18 -9 -1 5 13 2 17 -9 13 -8 -4 -17 -2 -20 3 -4 6 -13 10 -22 10 -9 0 -26 8
-37 18 -19 16 -19 15 2 -21 27 -46 27 -52 4 -29 -11 9 -17 20 -15 25 2 4 -3 7
-12 7 -9 0 -13 5 -10 10 3 6 1 10 -6 10 -7 0 -10 3 -6 6 3 3 -4 15 -15 26 -11
11 -17 26 -14 34 3 8 1 14 -4 14 -5 0 -7 7 -4 15 4 8 2 15 -2 15 -5 0 -10 42
-12 93 -6 170 51 312 167 420 71 65 155 113 231 132 68 17 201 19 255 4z m372
-431 c-3 -7 -5 -2 -5 12 0 14 2 19 5 13 2 -7 2 -19 0 -25z m-720 -365 c-4 -3
-1 -13 6 -22 11 -14 10 -14 -5 -2 -16 12 -16 31 -1 31 4 0 3 -3 0 -7z m-156
-60 c13 -16 12 -17 -3 -4 -10 7 -18 15 -18 17 0 8 8 3 21 -13z m6987 -604 c-3
-8 -7 -3 -11 10 -4 17 -3 21 5 13 5 -5 8 -16 6 -23z m-23 -681 c-9 -563 -10
-591 -25 -618 -13 -24 -12 -24 5 -10 17 14 18 14 6 -7 -9 -18 -9 -23 1 -24 7
0 4 -4 -7 -9 -11 -5 -15 -9 -8 -9 7 -1 10 -8 6 -18 -5 -12 -3 -14 8 -8 9 6 8
0 -5 -19 -10 -16 -14 -26 -9 -23 5 3 9 -9 9 -28 0 -19 -4 -32 -8 -29 -4 3 -5
-2 -2 -10 3 -9 11 -13 18 -10 6 3 3 -1 -6 -9 -16 -13 -16 -15 0 -31 13 -14 14
-17 2 -14 -11 2 -14 -5 -11 -32 1 -19 8 -41 14 -49 9 -11 9 -13 0 -8 -19 12
-23 -5 -24 -102 -1 -51 -3 -90 -6 -87 -3 3 -5 40 -4 83 1 43 -3 93 -8 111 -6
20 -6 30 0 27 5 -4 9 -1 9 4 0 6 -4 11 -10 11 -5 0 -10 25 -10 56 0 30 3 53 8
51 4 -3 7 5 7 18 0 13 -3 21 -7 18 -5 -2 -8 28 -8 67 0 45 -4 69 -10 65 -5 -3
-10 -1 -10 4 0 6 5 11 11 11 6 0 7 5 2 13 -11 18 -13 77 -2 77 5 0 9 5 9 11 0
5 -4 8 -9 5 -5 -3 -8 28 -8 69 0 51 3 72 11 68 8 -5 8 -3 0 8 -11 14 -12 107
-2 125 3 5 4 17 3 27 -2 9 0 15 5 12 8 -5 5 -60 -5 -98 -6 -21 -5 -21 6 -3 6
11 12 60 13 112 0 52 5 94 10 94 5 0 6 3 3 6 -3 4 -2 15 4 25 6 12 6 19 0 19
-5 0 -12 -6 -14 -12 -3 -7 -4 -2 -3 12 2 14 5 32 9 40 12 29 15 80 6 86 -6 4
-6 10 0 18 6 7 7 17 3 21 -4 5 -1 5 6 1 10 -6 10 -11 1 -22 -6 -8 -9 -14 -5
-14 3 0 9 0 14 0 4 0 8 54 8 120 2 146 3 160 9 160 3 0 3 -159 0 -352z m-48
27 c0 -8 -4 -12 -9 -9 -5 3 -6 10 -3 15 9 13 12 11 12 -6z m-1649 -580 c-3 -3
-9 2 -12 12 -6 14 -5 15 5 6 7 -7 10 -15 7 -18z m29 -20 c0 -8 -4 -12 -9 -9
-5 3 -6 10 -3 15 9 13 12 11 12 -6z m1596 -195 c3 -11 1 -18 -4 -14 -5 3 -9
12 -9 20 0 20 7 17 13 -6z m34 -442 c-3 -8 -6 -5 -6 6 -1 11 2 17 5 13 3 -3 4
-12 1 -19z m0 -50 c-3 -7 -5 -2 -5 12 0 14 2 19 5 13 2 -7 2 -19 0 -25z m-12
-167 c3 -5 2 -12 -3 -15 -5 -3 -9 1 -9 9 0 17 3 19 12 6z m6 -34 c-6 -8 -7
-18 -3 -22 4 -5 1 -5 -6 -1 -10 6 -10 11 -1 22 6 8 14 14 16 14 3 0 0 -6 -6
-13z m16 -79 c2 -17 0 -19 -7 -8 -5 8 -6 18 -4 22 8 12 10 10 11 -14z m-7980
-340 c-3 -8 -6 -5 -6 6 -1 11 2 17 5 13 3 -3 4 -12 1 -19z m6152 -193 c-23
-38 -39 -53 -39 -36 0 6 4 11 8 11 4 0 13 14 19 30 6 17 16 30 22 30 6 0 1
-16 -10 -35z m-6152 -312 c-3 -10 -5 -4 -5 12 0 17 2 24 5 18 2 -7 2 -21 0
-30z m1904 -177 c82 -19 203 -96 204 -130 0 -6 6 -22 14 -36 35 -61 51 -175
29 -199 -11 -11 -10 -12 0 -6 11 6 11 3 0 -16 -20 -36 -60 -79 -68 -74 -4 3
-15 -6 -24 -20 -9 -14 -22 -24 -29 -22 -6 1 -11 -4 -9 -11 1 -9 -5 -8 -22 3
-24 16 -24 16 -21 -11 2 -26 2 -27 -11 -9 -13 18 -14 18 -14 -3 0 -12 -5 -22
-11 -22 -5 0 -8 -4 -5 -9 3 -5 -2 -15 -12 -22 -15 -12 -16 -12 -5 1 10 13 8
18 -6 27 -14 9 -18 8 -18 -3 0 -7 4 -11 9 -8 15 9 8 -3 -9 -17 -10 -8 -14 -9
-10 -2 4 6 3 14 -3 18 -6 3 -10 -4 -10 -17 -1 -21 -2 -20 -16 7 -8 17 -12 22
-9 11 7 -24 -12 -47 -32 -39 -12 5 -14 3 -8 -8 6 -11 5 -12 -6 -1 -18 17 -32
15 -25 -4 3 -8 2 -12 -4 -9 -6 3 -11 16 -11 28 -1 20 -2 20 -6 2 -7 -29 -23
-42 -17 -14 l5 24 -13 -22 c-13 -22 -14 -22 -26 -2 -7 11 -17 17 -22 14 -6 -4
-8 -11 -4 -16 3 -5 11 -6 17 -2 7 4 6 0 -2 -10 -15 -18 -26 -23 -16 -7 9 14
-8 12 -24 -2 -11 -11 -11 -9 -2 10 6 12 9 22 6 22 -3 0 -8 0 -12 0 -5 0 -8 -4
-8 -9 0 -5 -4 -13 -9 -18 -5 -4 -6 -3 -3 3 4 7 0 17 -7 23 -11 10 -17 8 -25
-6 -9 -16 -11 -15 -12 7 -1 19 -3 20 -6 7 -4 -17 -7 -16 -33 8 -15 15 -32 26
-36 24 -16 -5 -44 47 -56 103 -16 75 -1 182 36 260 46 98 138 175 239 203 66
18 108 18 178 1z m-351 -621 l25 -30 -33 29 c-17 17 -32 34 -32 40 0 6 3 6 8
1 4 -6 18 -23 32 -40z m2960 -595 c0 -5 -2 -10 -4 -10 -3 0 -8 5 -11 10 -3 6
-1 10 4 10 6 0 11 -4 11 -10z m-357 -15 c-3 -9 -8 -14 -10 -11 -3 3 -2 9 2 15
9 16 15 13 8 -4z m3497 -329 c0 -2 -6 -9 -14 -15 -11 -9 -16 -9 -22 0 -4 7 -3
9 4 5 6 -3 13 -2 17 4 6 10 15 14 15 6z m-119 -99 c-10 -9 -11 -8 -5 6 3 10 9
15 12 12 3 -3 0 -11 -7 -18z m44 4 c3 -5 0 -13 -6 -17 -7 -4 -9 -3 -5 4 3 5 0
13 -6 15 -9 4 -10 6 -1 6 6 1 14 -3 18 -8z m-40 -33 c3 -3 -3 -11 -12 -19 -10
-7 -15 -9 -11 -5 4 5 3 15 -3 22 -7 9 -6 12 5 10 9 -1 18 -5 21 -8z m-124 -85
c13 -16 12 -17 -3 -4 -17 13 -22 21 -14 21 2 0 10 -8 17 -17z m-241 -133 c0
-5 -5 -10 -11 -10 -5 0 -7 5 -4 10 3 6 8 10 11 10 2 0 4 -4 4 -10z m-105 -40
c-3 -5 -14 -10 -23 -9 -14 0 -13 2 3 9 27 11 27 11 20 0z"/>
<path d="M7640 7892 c0 -7 -4 -11 -9 -8 -8 5 -25 -29 -22 -46 1 -5 -5 -7 -11
-5 -7 1 -12 -4 -10 -11 1 -8 -2 -11 -8 -7 -6 3 -8 11 -5 16 4 5 -5 8 -19 7
-13 -1 -24 -7 -23 -13 1 -5 -3 -9 -8 -8 -6 1 -11 -13 -12 -30 -3 -54 -6 -66
-15 -61 -4 3 -3 14 3 25 6 12 8 23 5 27 -3 3 -6 -1 -6 -9 0 -11 -2 -12 -9 -1
-7 11 -9 10 -14 -3 -4 -9 -3 -14 1 -11 5 3 9 -9 9 -27 0 -18 -2 -26 -5 -18 -4
11 -6 11 -14 0 -7 -10 -8 -8 -3 8 3 12 1 24 -4 28 -7 4 -8 -1 -4 -12 6 -15 4
-16 -8 -6 -13 10 -16 10 -16 -2 0 -8 4 -12 8 -10 3 3 9 -3 11 -13 3 -11 0 -19
-8 -19 -7 0 -11 4 -9 8 3 4 -1 9 -9 12 -9 4 -12 -2 -10 -18 2 -18 -2 -22 -14
-17 -14 5 -15 3 -5 -9 9 -12 5 -14 -23 -16 -24 -1 -32 2 -27 10 5 9 3 9 -8 0
-12 -10 -18 -10 -29 0 -12 10 -12 9 -1 -5 7 -10 18 -15 25 -11 6 3 8 3 4 -2
-4 -4 -3 -14 3 -21 7 -8 6 -14 -2 -20 -7 -4 -9 -3 -5 4 3 6 -2 16 -12 21 -16
8 -21 6 -31 -16 -13 -29 -31 -21 -34 15 -1 16 -4 18 -14 10 -7 -6 -13 -16 -13
-22 0 -6 5 -4 10 4 7 12 9 10 7 -7 -1 -17 -4 -19 -14 -11 -12 10 -17 4 -14
-15 1 -5 -3 -6 -9 -2 -6 3 -8 10 -5 15 3 4 -2 11 -11 14 -9 3 -12 11 -8 18 5
9 3 9 -9 -1 -9 -7 -17 -19 -17 -25 0 -7 4 -6 9 2 6 11 10 10 15 -4 4 -10 4
-15 0 -11 -4 4 -13 2 -21 -5 -8 -6 -13 -7 -12 -2 4 24 -2 33 -18 27 -16 -6
-17 -5 -3 13 14 17 13 18 -1 7 -9 -7 -20 -9 -25 -5 -4 4 -2 -1 5 -10 17 -23 7
-55 -13 -39 -7 6 -17 7 -21 3 -5 -4 -5 -1 -1 6 6 10 11 10 22 1 11 -9 14 -8
14 5 0 11 -9 16 -31 16 -22 0 -30 4 -26 13 3 8 -1 14 -8 14 -7 0 -11 -7 -10
-16 2 -9 4 -20 4 -24 1 -5 6 -5 13 -1 7 5 8 3 3 -6 -6 -10 -11 -9 -22 5 -7 11
-13 24 -13 31 0 7 -4 15 -9 18 -5 4 -7 -3 -4 -15 5 -19 3 -18 -22 5 -16 15
-30 24 -33 21 -3 -3 -12 1 -20 8 -9 7 -13 7 -9 1 3 -6 0 -20 -8 -30 -13 -18
-14 -17 -10 11 2 17 2 24 -1 17 -5 -10 -9 -10 -22 0 -14 10 -15 10 -4 -2 16
-18 16 -35 -1 -22 -23 19 -37 -3 -51 -79 -22 -113 -4 -198 71 -336 100 -184
225 -291 385 -328 60 -13 286 -26 267 -15 -4 3 5 11 21 17 17 6 30 7 30 2 0
-15 15 -10 53 15 19 13 37 22 40 20 2 -3 3 7 2 20 -2 14 0 25 3 25 20 -3 33 2
27 10 -7 12 50 53 59 43 4 -4 7 -2 6 3 -5 22 1 27 18 14 15 -13 16 -12 3 4
-12 15 -11 20 6 40 11 12 34 46 50 74 16 29 32 51 34 49 2 -2 5 5 5 17 1 12 9
56 19 97 29 129 -1 293 -71 387 -57 76 -194 200 -194 177 0 -5 -5 -2 -10 6 -7
11 -10 11 -10 2z m-87 -79 c-4 -10 -2 -14 4 -10 5 3 10 -1 10 -9 0 -10 -4 -11
-11 -4 -18 18 -27 11 -16 -12 11 -22 10 -22 -4 -4 -14 18 -14 21 1 38 20 22
24 23 16 1z m-587 -197 c2 -13 -1 -14 -10 -7 -7 6 -15 9 -18 6 -2 -3 -5 1 -5
9 0 20 30 13 33 -8z"/>
<path d="M7597 7871 c-4 -15 -10 -20 -18 -15 -8 5 -10 3 -4 -5 10 -17 39 11
33 30 -3 8 -7 4 -11 -10z"/>
<path d="M7367 7667 c-3 -8 1 -14 8 -14 7 0 11 6 8 14 -3 7 -6 13 -8 13 -2 0
-5 -6 -8 -13z"/>
<path d="M7279 7648 c-5 -15 -9 -61 -5 -58 6 7 16 60 10 60 -2 0 -4 -1 -5 -2z"/>
<path d="M7211 7626 c-9 -11 -9 -16 1 -22 7 -4 10 -4 6 1 -4 4 -3 14 3 22 6 7
9 13 6 13 -2 0 -10 -6 -16 -14z"/>
<path d="M4925 7204 c-186 -19 -255 -28 -352 -50 -409 -91 -774 -289 -1069
-581 -126 -124 -230 -255 -218 -275 4 -7 4 -10 -1 -6 -4 4 -14 3 -22 -3 -16
-14 -18 -33 -1 -23 7 4 8 3 4 -5 -4 -6 -11 -9 -16 -6 -4 3 -26 -23 -48 -57
-51 -82 -77 -132 -62 -123 12 7 11 -26 -2 -35 -3 -3 -8 -12 -10 -20 -2 -8 -9
-21 -16 -28 -7 -8 -10 -18 -7 -23 4 -5 1 -9 -5 -9 -6 0 -8 -4 -5 -10 3 -5 2
-10 -4 -10 -5 0 -11 5 -13 12 -3 8 -7 6 -11 -5 -3 -9 -3 -16 1 -16 19 3 19 -6
-4 -62 -14 -34 -23 -63 -20 -66 2 -2 7 6 11 19 16 54 138 284 198 375 96 144
180 244 314 373 252 244 536 405 898 511 230 67 527 99 743 78 75 -7 152 -13
170 -13 17 -1 32 -5 32 -10 0 -4 17 -5 38 -2 27 5 33 4 22 -3 -13 -9 -13 -11
1 -11 9 0 19 8 22 19 4 15 -1 19 -22 18 -57 0 -82 3 -76 12 3 6 -15 10 -42 11
-77 1 -88 3 -93 11 -6 9 -272 19 -335 13z m-1708 -1019 c-7 -14 -16 -25 -20
-25 -8 0 -2 14 16 38 15 19 16 14 4 -13z m-36 -54 c-6 -10 -7 -21 -4 -25 3 -3
1 -6 -6 -6 -7 0 -9 -4 -6 -10 3 -5 1 -10 -4 -10 -6 0 -11 2 -11 5 0 10 30 65
36 65 2 0 0 -8 -5 -19z"/>
<path d="M5515 7131 l20 -8 -20 -6 -20 -6 20 2 c24 3 23 21 -2 24 -15 2 -14 1
2 -6z"/>
<path d="M4894 7049 c-355 -27 -672 -136 -974 -333 -462 -303 -786 -796 -867
-1319 -23 -151 -23 -471 1 -616 23 -143 83 -378 85 -334 1 6 -4 24 -9 38 -10
26 -23 122 -24 177 0 15 -4 24 -8 22 -4 -3 -7 18 -6 47 0 37 3 47 10 35 5 -9
7 -20 4 -25 -3 -5 2 -15 12 -22 14 -11 15 -11 5 1 -8 9 -9 19 -2 32 5 10 11
35 12 56 1 20 7 36 13 35 6 -1 9 13 8 33 -2 23 0 32 8 28 7 -4 8 -3 4 5 -4 6
-3 18 3 25 12 14 5 46 -9 46 -4 0 -11 7 -14 16 -3 8 -2 12 4 9 6 -4 14 4 20
17 8 21 9 20 7 -9 -1 -18 3 -33 8 -33 6 0 10 3 10 8 0 4 4 13 9 21 6 10 5 12
-2 7 -8 -5 -12 3 -12 23 0 17 4 31 9 31 5 0 7 -10 4 -22 -3 -13 -3 -20 1 -17
4 4 9 33 11 65 2 33 5 70 7 83 5 24 47 63 60 55 3 -2 10 1 14 7 5 8 3 9 -6 4
-10 -6 -12 -4 -6 11 4 10 9 24 10 29 1 6 5 15 9 22 4 6 5 19 2 30 -4 12 -2 10
6 -4 6 -12 18 -24 27 -28 12 -4 12 -2 -2 19 -22 35 -20 43 5 15 19 -23 20 -23
10 -2 -15 30 -14 33 7 27 16 -5 16 -5 0 6 -10 6 -18 16 -18 23 0 7 4 6 11 -3
8 -12 9 -12 8 5 -2 11 1 30 5 43 l7 22 18 -21 c11 -14 20 -18 24 -12 4 6 0 16
-8 23 -7 6 -11 18 -8 26 3 8 -1 22 -8 32 -13 15 -12 16 4 3 11 -8 16 -22 14
-33 -3 -10 -1 -16 3 -13 5 3 12 1 15 -5 8 -13 35 6 35 24 0 6 -5 3 -11 -7 -12
-20 -29 -14 -29 11 0 13 2 14 9 4 6 -11 10 -10 15 3 5 14 9 15 20 6 10 -9 16
-9 21 -1 4 6 1 9 -7 8 -8 -2 -12 5 -10 17 2 19 2 19 -12 2 -8 -10 -16 -14 -18
-10 -3 4 -3 2 -2 -5 3 -9 -1 -10 -16 -2 -20 11 -27 22 -11 18 4 -2 17 6 27 17
11 11 16 16 12 11 -13 -17 -9 -29 6 -17 11 10 16 9 24 -5 8 -15 9 -15 15 0 4
10 3 15 -1 12 -4 -2 -12 7 -19 20 -8 17 -8 26 -1 31 6 3 8 1 4 -5 -6 -11 9
-25 31 -28 16 -3 23 8 29 44 3 18 1 22 -4 14 -5 -8 -13 -13 -18 -12 -5 1 -12
-9 -16 -22 -5 -19 -6 -17 -5 9 1 18 3 30 5 28 10 -10 43 18 38 31 -3 8 0 13 7
11 7 -1 11 4 9 11 -2 10 2 10 18 2 13 -7 20 -7 20 0 0 5 -4 10 -10 10 -5 0 -2
9 7 19 9 11 21 17 26 14 6 -4 4 -11 -4 -17 -18 -14 -18 -42 1 -58 12 -11 12
-11 2 4 -8 10 -9 19 -3 22 5 3 12 0 15 -6 3 -7 3 -3 1 9 -3 12 -1 24 5 28 8 5
5 14 -7 28 -16 19 -16 20 0 8 21 -17 22 -4 1 20 -12 14 -13 18 -2 25 7 4 10 4
6 -1 -4 -4 -3 -14 3 -22 10 -11 15 -11 28 -1 14 12 14 11 3 -4 -8 -9 -10 -23
-6 -29 5 -8 3 -9 -7 -4 -12 8 -12 6 0 -8 17 -22 19 -21 17 5 0 13 4 23 11 23
14 0 53 40 53 54 0 5 4 11 10 13 5 2 6 9 1 17 -7 10 -14 1 -29 -33 -21 -47
-36 -61 -30 -28 1 9 -2 24 -7 32 -8 13 -7 13 10 0 17 -14 18 -13 12 3 -4 11
-3 16 3 12 9 -5 14 7 12 27 -1 3 6 12 15 20 9 7 14 8 10 2 -4 -6 3 -20 14 -30
20 -18 20 -18 10 8 -9 23 -8 26 7 21 9 -3 14 -3 11 1 -4 4 9 23 27 42 20 19
32 39 28 46 -4 6 -3 8 4 4 6 -3 15 2 21 11 8 13 10 14 11 3 0 -9 13 -1 33 20
19 19 51 51 73 70 21 19 -2 -8 -51 -61 -58 -62 -93 -92 -98 -85 -6 7 -7 4 -3
-7 5 -17 -50 -107 -66 -107 -4 0 -7 -3 -6 -7 4 -13 -32 -73 -43 -73 -6 0 -8
-4 -4 -9 3 -5 -2 -17 -11 -25 -8 -9 -13 -16 -11 -16 3 0 -11 -37 -30 -82 -71
-170 -110 -401 -100 -599 18 -354 156 -674 402 -928 138 -143 263 -235 430
-319 72 -36 245 -96 253 -88 6 6 -58 32 -70 28 -5 -1 -8 3 -8 8 0 5 -3 9 -7 9
-17 -4 -73 23 -67 32 3 5 -3 6 -12 2 -11 -4 -15 -2 -11 4 4 6 0 10 -10 9 -9 0
-18 5 -21 13 -3 10 0 11 9 5 11 -6 11 -4 -1 12 -22 29 -24 30 -17 12 7 -21 3
-22 -24 -7 -19 10 -19 12 -5 28 14 15 14 18 1 18 -8 0 -12 -4 -9 -9 3 -4 -2
-8 -10 -8 -10 0 -13 6 -9 17 4 9 2 14 -3 10 -7 -4 -9 7 -6 26 4 31 3 31 -11
12 -14 -19 -16 -19 -22 -3 -4 10 -12 15 -18 11 -6 -4 -7 -1 -2 7 6 10 11 9 22
-5 12 -18 13 -18 13 3 0 14 -6 22 -16 22 -10 0 -14 6 -11 14 8 19 -3 28 -19
15 -8 -7 -14 -6 -20 2 -4 7 -3 9 3 6 6 -4 16 0 23 8 9 10 9 15 1 15 -6 0 -11
15 -11 33 0 24 -3 28 -10 17 -6 -10 -10 -11 -10 -2 0 22 2 27 9 25 4 -1 8 5 8
12 0 11 -4 12 -13 4 -8 -7 -14 -7 -19 1 -3 6 -12 7 -18 3 -9 -5 -9 -3 -1 8 15
19 9 50 -11 62 -15 8 -15 11 4 31 14 14 20 32 17 47 -2 16 4 30 18 42 11 10
15 16 9 12 -7 -3 -13 -2 -13 4 0 6 -7 8 -15 5 -20 -8 -19 6 3 22 10 8 12 13 5
14 -7 0 -13 4 -13 9 0 4 12 6 26 3 24 -4 25 -3 15 17 -7 11 -9 21 -5 21 3 0 0
8 -7 17 -10 11 -10 14 -1 9 6 -4 13 -2 13 3 1 6 2 17 3 24 1 6 -3 16 -9 20 -6
5 -4 7 5 6 29 -3 41 1 35 11 -3 6 -4 10 0 10 3 0 10 -10 15 -22 7 -17 9 -10 5
29 -2 29 0 55 4 57 5 3 7 -8 5 -24 -2 -16 0 -31 4 -34 4 -2 8 14 9 35 1 21 -2
39 -6 39 -4 0 -8 7 -8 15 0 11 3 12 14 3 8 -7 13 -22 10 -34 -2 -13 0 -29 5
-36 7 -10 8 -10 7 2 -4 37 2 70 12 70 6 0 8 -7 5 -16 -3 -8 -2 -12 4 -9 15 9
12 35 -4 35 -8 0 -16 7 -20 15 -7 18 5 20 23 3 10 -11 12 -10 9 2 -2 8 2 14 7
13 12 -2 12 33 1 59 -5 10 -13 15 -20 11 -6 -4 -5 1 2 10 8 9 11 21 8 26 -4 6
4 8 20 5 21 -4 25 -2 21 10 -5 13 -3 14 13 4 14 -9 16 -16 8 -31 -5 -10 -7
-21 -4 -25 3 -3 6 0 6 6 0 7 7 12 15 12 17 0 20 16 5 25 -6 4 -8 10 -5 15 3 5
0 12 -6 15 -5 4 -8 14 -5 22 4 9 2 12 -7 7 -9 -6 -9 -4 -1 7 15 19 11 75 -5
71 -7 -1 -10 2 -6 8 3 6 10 8 15 5 5 -3 18 11 29 32 22 42 29 38 8 -5 -12 -25
-14 -39 -7 -59 1 -5 5 6 9 22 3 17 11 30 18 30 16 0 23 9 28 35 2 12 7 25 11
29 4 3 4 -2 1 -11 -4 -11 0 -18 11 -21 16 -4 15 -5 0 -6 -25 -1 -23 -17 1 -17
17 0 37 35 33 57 0 3 5 6 13 6 8 0 13 -3 12 -6 -1 -3 4 -16 11 -29 7 -12 9
-22 5 -21 -20 3 -23 -3 -11 -23 7 -13 13 -26 14 -30 1 -5 3 -11 4 -15 1 -5 2
-12 1 -16 -1 -5 3 -6 9 -2 8 5 7 11 -1 21 -6 8 -8 14 -4 14 4 0 2 7 -5 15 -6
8 -8 20 -4 26 5 9 10 5 17 -12 6 -13 11 -27 11 -31 1 -3 5 -10 9 -15 5 -4 7
-1 5 7 -2 9 3 14 12 12 8 -2 11 0 7 5 -5 4 -13 8 -18 8 -6 0 -18 18 -28 41
-19 41 -19 41 3 40 11 -1 27 -5 34 -9 13 -9 16 3 4 19 -4 5 -5 8 -3 6 2 -1 14
6 25 15 21 18 21 18 4 -2 -12 -14 -14 -25 -8 -35 9 -14 15 -6 10 15 -1 5 2 7
6 3 4 -4 14 -2 22 5 13 10 14 9 8 -1 -6 -9 -1 -11 17 -8 14 2 28 1 32 -2 11
-11 29 -8 40 6 9 11 11 9 11 -7 0 -11 -4 -19 -9 -18 -5 1 -12 -5 -14 -13 -4
-12 -3 -12 5 -2 5 8 12 13 16 13 20 -3 24 1 21 17 -2 11 3 19 11 19 9 0 11 -4
4 -12 -5 -7 -7 -15 -3 -19 4 -4 2 -10 -4 -14 -8 -5 -8 -13 1 -31 11 -20 14
-21 19 -7 4 10 3 15 -3 11 -6 -3 -10 1 -10 10 0 10 5 13 12 9 8 -5 9 -2 4 12
-4 10 -4 15 0 11 4 -4 12 -2 19 3 8 7 12 5 12 -5 0 -8 -5 -11 -11 -8 -6 3 -7
2 -3 -2 4 -5 14 -10 23 -11 11 -2 13 4 9 19 -6 21 -5 21 6 3 12 -19 12 -19 26
0 10 13 14 15 13 4 -4 -30 0 -50 11 -50 6 0 9 8 7 18 -4 14 2 17 28 17 18 0
37 -5 41 -9 4 -5 3 -6 -4 -2 -6 3 -14 2 -18 -4 -3 -5 3 -10 14 -10 10 0 27 -3
37 -7 11 -4 15 -3 11 4 -9 15 20 10 35 -5 16 -16 31 -15 22 1 -6 9 -5 9 8 0 8
-7 18 -10 21 -6 13 12 7 -13 -5 -26 -11 -11 -9 -11 9 0 12 7 19 18 15 24 -3 5
2 4 11 -4 18 -14 24 -26 8 -17 -5 3 -15 -2 -22 -11 -12 -15 -12 -16 1 -8 8 6
23 10 33 10 10 0 22 7 27 15 9 13 10 13 10 0 0 -12 2 -12 9 -2 6 10 10 6 15
-14 7 -25 9 -26 17 -12 12 21 40 12 32 -10 -4 -14 -3 -15 5 -2 8 10 8 18 0 27
-7 9 -7 13 1 13 6 0 14 -12 17 -26 5 -18 9 -22 15 -13 4 7 6 16 3 20 -2 4 1
11 7 15 7 4 10 3 6 -2 -3 -5 1 -18 9 -29 14 -18 14 -18 14 1 0 12 6 21 14 21
8 0 12 -6 10 -12 -3 -7 3 -18 12 -26 16 -12 17 -12 9 1 -8 13 -7 13 8 1 10 -8
17 -9 17 -3 0 7 10 8 29 2 19 -5 33 -4 41 3 8 8 11 8 7 1 -7 -13 20 -54 35
-54 6 0 21 -8 32 -17 17 -15 18 -15 8 -2 -10 14 -10 18 3 23 13 5 19 -4 17
-25 -1 -3 6 -6 14 -6 17 0 18 18 2 37 -11 12 -10 12 5 1 9 -7 17 -19 17 -26 0
-26 25 -35 54 -20 27 14 28 14 15 -2 -12 -15 -12 -16 3 -10 10 3 20 2 23 -3 3
-5 14 -7 25 -5 11 2 22 -1 26 -6 7 -12 -34 -8 -56 5 -11 7 -10 3 3 -11 9 -11
14 -23 10 -28 -5 -4 2 -1 15 6 19 12 24 12 31 0 7 -11 10 -10 14 5 3 13 5 11
6 -8 0 -16 6 -28 12 -28 6 0 9 8 7 18 -3 11 0 19 7 19 9 0 10 -8 4 -31 -5 -16
-7 -32 -4 -34 2 -2 7 8 11 23 6 24 8 25 16 11 5 -10 7 -23 4 -31 -2 -7 3 -19
12 -27 15 -12 16 -11 4 4 -9 11 -10 18 -2 23 6 3 8 10 6 14 -3 4 1 8 7 8 7 0
14 -10 15 -21 1 -17 -1 -18 -8 -6 -7 11 -10 12 -10 2 0 -8 9 -16 20 -19 15 -4
18 -9 10 -18 -7 -9 -6 -16 4 -24 11 -9 16 -9 22 0 4 7 3 9 -4 5 -6 -3 -13 -2
-17 4 -3 5 -2 10 4 10 5 0 12 10 14 23 4 21 4 21 6 -3 1 -20 3 -22 11 -10 8
11 9 9 6 -12 -4 -21 -1 -26 11 -21 12 5 14 3 8 -7 -5 -8 -4 -11 3 -6 5 3 12 3
15 -1 2 -5 2 -2 1 5 -2 6 1 12 6 12 6 0 10 -7 10 -15 0 -21 18 -19 23 3 3 9 5
0 6 -20 0 -20 6 -40 13 -44 6 -4 8 -3 4 4 -3 6 -2 13 4 17 9 6 14 -8 11 -28
-1 -5 3 -6 9 -2 6 3 8 10 5 15 -3 4 2 10 10 14 11 4 13 -1 8 -24 -3 -19 -1
-30 5 -30 6 0 9 7 5 16 -4 12 -2 15 8 12 8 -3 13 -13 11 -23 -2 -9 1 -14 7
-11 5 4 12 2 16 -4 4 -6 10 -8 15 -5 5 3 11 1 15 -5 3 -5 -2 -10 -12 -10 -15
0 -15 -2 -3 -9 8 -6 18 -7 24 -4 5 4 7 -2 3 -13 -7 -18 -7 -18 7 0 14 17 15
16 11 -10 -2 -16 -4 -33 -4 -38 -1 -4 -8 -6 -16 -2 -12 4 -13 2 -6 -13 6 -10
7 -22 3 -26 -4 -3 -7 -10 -7 -13 -1 -15 -38 -82 -51 -93 -8 -6 -14 -15 -14
-20 0 -35 128 147 187 266 131 262 165 620 88 926 -89 353 -315 665 -628 862
-269 171 -638 270 -943 253 -62 -3 -115 -2 -118 3 -3 4 13 6 35 4 29 -4 39 -2
35 6 -5 7 -2 10 6 9 7 -2 12 3 10 10 -1 8 2 11 8 7 6 -3 7 -12 3 -18 -5 -9 -3
-9 8 0 8 6 30 14 49 16 32 5 33 5 16 -9 -17 -12 -17 -14 -4 -14 9 0 20 10 24
22 l7 22 18 -23 c22 -27 23 -24 8 16 -5 15 -7 24 -3 20 4 -4 14 -1 23 6 14 11
14 10 2 -6 -19 -24 0 -47 24 -27 12 10 18 10 31 0 8 -8 14 -9 13 -4 -1 5 -1
18 0 28 1 19 1 19 14 1 14 -18 38 -13 36 8 0 9 -2 9 -6 0 -2 -7 -10 -13 -15
-13 -6 0 -8 3 -5 7 4 3 2 12 -4 19 -7 8 -7 14 1 19 6 4 9 3 8 -2 -2 -4 2 -9 7
-10 6 -2 10 1 10 7 0 5 7 15 15 22 12 11 12 11 2 -3 -9 -12 -9 -19 1 -29 10
-10 9 -11 -3 -5 -8 5 -12 4 -7 0 4 -5 16 -9 27 -10 19 -2 19 -1 3 19 -10 12
-11 15 -3 9 19 -17 35 -16 21 1 -9 10 -7 17 6 27 16 12 17 12 6 -2 -17 -21 -5
-33 16 -16 14 11 14 10 2 -5 -10 -14 -10 -18 -1 -18 7 0 10 -8 7 -19 -4 -17
-2 -18 23 -10 16 6 27 17 26 27 0 9 5 17 12 18 6 1 14 3 17 4 14 7 31 5 37 -5
5 -6 8 -6 8 2 0 9 7 8 27 -2 20 -10 32 -11 47 -3 29 15 29 15 11 22 -9 3 -14
2 -10 -3 7 -12 -15 -19 -38 -13 -31 8 -12 27 26 26 20 -1 35 1 33 5 -2 3 6 6
19 6 13 0 21 -3 18 -7 -9 -16 10 -8 24 10 8 9 12 12 9 5 -4 -6 -2 -14 4 -18 5
-3 10 1 10 9 0 19 14 28 34 20 20 -8 21 -21 1 -21 -8 0 -12 4 -9 9 3 4 0 8 -5
8 -13 0 -14 -10 -1 -30 5 -8 10 -10 10 -5 0 6 9 11 20 12 13 1 18 -2 13 -10
-5 -9 -2 -8 9 0 8 7 18 10 21 7 3 -4 4 6 1 22 -3 19 -1 24 5 15 7 -11 10 -11
15 0 3 8 3 4 0 -9 -3 -12 -2 -22 3 -21 4 1 10 0 13 -1 24 -9 36 -5 36 12 0 18
-1 18 -13 2 -7 -10 -13 -14 -14 -8 0 5 -2 17 -4 27 -3 13 0 15 9 8 9 -7 16 -7
24 1 16 16 28 2 13 -15 -9 -11 -8 -17 3 -26 12 -10 13 -9 9 8 -3 13 -1 21 6
21 7 0 10 4 7 8 -2 4 5 9 17 9 17 2 18 0 7 -7 -12 -7 -11 -10 5 -15 40 -14 44
-14 50 -4 4 5 3 9 -2 8 -18 -3 -33 2 -33 11 0 5 7 6 17 3 10 -4 14 -2 10 4 -3
5 0 10 8 10 8 0 12 -4 9 -8 -2 -4 0 -10 6 -14 5 -3 10 2 11 12 0 14 2 14 9 -4
5 -13 11 -23 14 -23 2 0 2 10 -1 23 -4 19 -3 20 7 5 6 -10 20 -18 31 -18 13 0
18 -4 13 -12 -4 -8 -3 -10 2 -5 5 5 10 13 10 18 1 5 2 12 3 17 1 4 11 -4 22
-18 14 -18 18 -19 11 -5 -7 14 -6 24 4 33 8 7 14 9 14 4 0 -4 7 -17 15 -28 15
-18 15 -18 8 0 -5 14 -3 17 7 11 8 -5 11 -3 8 6 -3 8 -11 13 -17 11 -7 -1 -9
2 -5 9 5 9 14 3 30 -16 21 -27 28 -18 10 15 -4 8 1 5 12 -8 15 -16 22 -18 26
-10 4 7 4 2 2 -12 -5 -24 -4 -24 10 -6 12 17 16 18 27 6 10 -10 9 -11 -2 -5
-10 6 -12 4 -7 -4 5 -7 10 -10 13 -7 3 3 14 1 24 -5 13 -7 19 -6 19 1 0 6 5 8
10 5 6 -4 7 -11 4 -17 -4 -7 -2 -8 5 -4 7 5 42 -17 89 -56 42 -34 73 -58 69
-51 -14 23 -163 137 -267 205 -209 137 -465 241 -702 287 -99 19 -339 43 -398
40 -14 -1 -70 -5 -126 -10z m1075 -357 c13 10 14 10 4 -2 -17 -19 -40 -21 -40
-4 0 10 4 11 10 5 7 -7 16 -7 26 1z m-315 -33 c-2 -4 1 -9 8 -11 9 -3 9 -6 1
-11 -7 -4 -16 1 -22 11 -7 14 -6 19 4 19 8 0 12 -4 9 -8z m-513 -26 c13 -16
12 -17 -3 -4 -10 7 -18 15 -18 17 0 8 8 3 21 -13z m166 2 c0 -8 -4 -12 -9 -9
-5 3 -6 10 -3 15 9 13 12 11 12 -6z m11 -37 c-7 -13 -11 -26 -10 -30 4 -15
-16 -8 -22 7 -3 9 0 15 8 15 8 0 16 7 20 15 3 8 8 15 11 15 3 0 0 -10 -7 -22z
m-192 -44 c1 -9 0 -13 -4 -10 -3 4 -7 14 -8 22 -1 9 0 13 4 10 3 -4 7 -14 8
-22z m-32 -8 c-3 -9 -10 -16 -15 -16 -5 0 -4 9 3 20 14 22 21 20 12 -4z m-779
-236 c-3 -5 -12 -10 -18 -10 -7 0 -6 4 3 10 19 12 23 12 15 0z m112 -68 c-1
-9 -6 -23 -11 -30 -4 -7 -2 -19 4 -27 7 -8 10 -15 6 -15 -3 0 -9 -1 -13 -2
-11 -4 -12 61 -2 68 5 3 9 10 9 17 0 6 -7 2 -16 -9 -8 -10 -12 -13 -8 -5 4 9
3 12 -4 7 -6 -3 -9 -16 -6 -29 13 -60 14 -68 5 -63 -11 7 -9 -20 3 -31 4 -4 6
-2 4 6 -1 7 5 15 15 16 18 3 18 3 2 -16 -10 -10 -21 -16 -25 -14 -4 3 -11 -2
-14 -11 -3 -8 -11 -12 -16 -9 -6 4 -9 3 -8 -2 2 -4 0 -9 -4 -11 -4 -1 -18 -12
-31 -25 -13 -12 -45 -42 -73 -67 -70 -65 -104 -108 -97 -125 4 -11 0 -14 -13
-9 -16 5 -16 4 -4 -5 13 -9 12 -11 -5 -12 l-20 0 20 -8 c16 -6 32 3 80 47 125
113 283 204 432 248 119 35 277 37 373 4 165 -55 272 -174 302 -337 20 -109
-37 -292 -124 -397 -147 -177 -373 -301 -603 -331 -226 -29 -432 16 -585 129
-60 44 -101 82 -95 88 2 2 6 24 7 48 2 25 8 51 12 59 7 10 5 12 -5 6 -11 -7
-12 -6 -3 6 16 22 36 98 28 111 -4 6 -3 8 3 5 9 -6 47 72 43 89 -1 4 4 11 12
15 10 7 10 9 0 9 -7 0 -10 5 -7 10 4 6 12 7 18 4 7 -4 8 -3 4 1 -10 11 -39 16
-32 5 2 -4 -4 -15 -14 -24 -18 -16 -20 -16 -29 0 -8 14 -9 12 -9 -11 0 -15 2
-23 6 -19 11 16 31 14 25 -1 -4 -8 -11 -12 -17 -8 -6 4 -8 0 -4 -10 7 -19 -18
-44 -28 -27 -5 8 -10 8 -20 0 -10 -8 -15 -8 -21 1 -4 7 -3 9 3 6 11 -7 37 16
29 24 -10 10 -14 59 -5 64 5 4 10 -10 10 -29 2 -52 3 -56 14 -55 6 1 8 6 5 12
-2 7 -4 28 -5 48 0 20 -4 36 -10 35 -19 -3 -35 -17 -30 -27 4 -5 -1 -9 -11 -9
-15 0 -15 2 0 28 l17 27 -20 -23 c-11 -12 -22 -18 -25 -13 -3 5 1 14 9 21 8 7
15 18 15 24 0 6 -5 3 -11 -7 -8 -14 -14 -15 -24 -7 -11 9 -17 6 -31 -15 -9
-14 -14 -28 -11 -32 4 -3 11 6 17 21 5 15 15 24 20 21 6 -4 7 -12 3 -18 -4 -7
-9 -21 -10 -32 -3 -20 -2 -20 12 -1 14 18 15 18 25 -9 7 -19 7 -32 1 -38 -7
-7 -7 -16 2 -26 11 -14 10 -14 -6 -2 -12 10 -15 17 -7 25 19 19 10 29 -11 10
-11 -10 -19 -14 -18 -9 5 18 -12 55 -22 49 -6 -4 -6 -10 1 -19 7 -9 6 -16 -7
-26 -16 -12 -17 -12 -6 2 7 9 10 19 6 23 -15 14 -11 41 13 88 15 30 29 46 36
42 7 -4 8 -3 4 4 -20 33 216 309 343 402 80 59 222 141 232 134 5 -3 8 -13 6
-22z m-282 -42 c-10 -11 -23 -20 -29 -20 -6 0 0 9 14 20 32 25 38 25 15 0z
m16 -323 c-10 -9 -11 -8 -5 6 3 10 9 15 12 12 3 -3 0 -11 -7 -18z m9 -21 c0
-2 -8 -10 -17 -17 -16 -13 -17 -12 -4 4 13 16 21 21 21 13z m-577 -111 c-3 -9
-8 -14 -10 -11 -3 3 -2 9 2 15 9 16 15 13 8 -4z m394 -130 c0 -8 -4 -12 -9 -9
-5 3 -6 10 -3 15 9 13 12 11 12 -6z m-463 -30 c-4 -8 -8 -15 -10 -15 -2 0 -4
7 -4 15 0 8 4 15 10 15 5 0 7 -7 4 -15z m386 -49 c0 -2 -8 -10 -17 -17 -16
-13 -17 -12 -4 4 13 16 21 21 21 13z m-563 -91 c0 -8 -4 -12 -9 -9 -5 3 -6 10
-3 15 9 13 12 11 12 -6z m-73 -181 c-20 -30 -29 -32 -12 -1 7 12 11 26 10 30
-1 5 2 6 8 2 6 -4 4 -15 -6 -31z m-77 -176 c-3 -8 -6 -5 -6 6 -1 11 2 17 5 13
3 -3 4 -12 1 -19z m1406 -120 c-4 -7 -8 -16 -8 -20 0 -3 -3 -9 -7 -12 -5 -3
-6 -3 -3 1 3 3 -1 13 -8 21 -8 11 -8 14 0 9 6 -4 14 -3 18 3 3 5 8 10 11 10 3
0 2 -6 -3 -12z m-1441 -19 c2 -2 1 -3 -1 -2 -7 4 -28 -22 -26 -32 1 -5 0 -7
-2 -2 -3 4 -10 4 -15 1 -7 -5 -8 -2 -2 7 5 8 9 17 10 22 1 4 2 9 3 11 1 5 29
1 33 -5z m1269 -86 c13 -16 12 -17 -3 -4 -17 13 -22 21 -14 21 2 0 10 -8 17
-17z m-1316 -43 c-3 -5 -2 -10 3 -10 5 0 7 -12 4 -27 l-6 -28 -6 30 c-6 29 -4
45 6 45 3 0 2 -4 -1 -10z m1345 -26 c0 -8 -19 -13 -24 -6 -3 5 1 9 9 9 8 0 15
-2 15 -3z m1223 -7 c-2 -4 -5 -7 -8 -7 -3 0 -9 0 -15 0 -5 0 -10 4 -10 9 0 5
8 8 18 7 9 -2 16 -6 15 -9z m-1279 -164 c-21 -16 -34 -17 -34 -3 0 6 9 10 21
10 11 0 17 5 14 10 -4 6 -11 7 -17 4 -7 -4 -8 -2 -4 5 6 9 11 9 23 0 13 -11
13 -14 -3 -26z m-35 -45 c13 -22 13 -23 -6 -5 -11 9 -23 14 -28 10 -4 -5 -5
-2 -1 5 10 18 19 15 35 -10z m1745 4 c3 -5 -1 -9 -9 -9 -8 0 -12 4 -9 9 3 4 7
8 9 8 2 0 6 -4 9 -8z m86 -60 c0 -5 -7 -9 -15 -9 -8 0 -15 4 -15 9 0 4 7 8 15
8 8 0 15 -4 15 -8z m-1960 -272 c0 -5 -2 -10 -4 -10 -3 0 -8 5 -11 10 -3 6 -1
10 4 10 6 0 11 -4 11 -10z m-3 -39 c1 -11 -8 -27 -20 -38 l-21 -18 16 26 c11
17 13 30 7 42 -7 12 -6 15 3 12 8 -3 14 -14 15 -24z"/>
<path d="M4105 5801 c1 -9 -3 -19 -9 -23 -8 -6 -8 -8 0 -8 10 0 52 39 43 41
-2 0 -11 2 -20 4 -11 2 -16 -3 -14 -14z"/>
<path d="M4073 5748 c1 -7 -3 -12 -9 -11 -6 1 -11 -5 -11 -13 0 -12 4 -11 18
2 10 9 16 21 13 25 -8 13 -14 11 -11 -3z"/>
<path d="M3835 5701 c-3 -5 -2 -12 3 -15 5 -3 9 1 9 9 0 17 -3 19 -12 6z"/>
<path d="M4020 5669 c0 -5 5 -7 10 -4 6 3 10 8 10 11 0 2 -4 4 -10 4 -5 0 -10
-5 -10 -11z"/>
<path d="M3837 5603 c-4 -3 -7 -11 -7 -17 0 -6 5 -5 12 2 6 6 9 14 7 17 -3 3
-9 2 -12 -2z"/>
<path d="M7736 6992 c-3 -6 -1 -14 5 -17 14 -9 20 -2 10 14 -6 8 -11 9 -15 3z"/>
<path d="M7705 6950 c-3 -5 -2 -10 4 -10 5 0 13 5 16 10 3 6 2 10 -4 10 -5 0
-13 -4 -16 -10z"/>
<path d="M5360 6596 c0 -2 8 -10 18 -17 15 -13 16 -12 3 4 -13 16 -21 21 -21
13z"/>
<path d="M5210 6536 c7 -7 13 -7 20 0 6 6 3 10 -10 10 -13 0 -16 -4 -10 -10z"/>
<path d="M5170 6520 c8 -5 20 -10 25 -10 6 0 3 5 -5 10 -8 5 -19 10 -25 10 -5
0 -3 -5 5 -10z"/>
<path d="M4948 6503 c7 -3 16 -2 19 1 4 3 -2 6 -13 5 -11 0 -14 -3 -6 -6z"/>
<path d="M9020 6441 c0 -6 4 -12 8 -15 5 -3 9 1 9 9 0 8 -4 15 -9 15 -4 0 -8
-4 -8 -9z"/>
<path d="M9021 6354 c-1 -6 5 -17 12 -23 10 -8 14 -7 14 4 0 8 -4 12 -8 9 -4
-2 -10 2 -12 8 -4 8 -6 9 -6 2z"/>
<path d="M3100 6019 c-12 -23 -20 -43 -18 -45 3 -2 14 17 26 41 27 56 20 60
-8 4z"/>
<path d="M3026 5775 c-9 -26 -7 -32 5 -12 6 10 9 21 6 23 -2 3 -7 -2 -11 -11z"/>
<path d="M2996 5686 c-9 -30 -19 -70 -21 -88 -3 -18 6 5 19 52 14 46 23 86 21
88 -2 2 -10 -21 -19 -52z"/>
<path d="M3550 5651 c-7 -14 -7 -22 0 -26 6 -4 7 -11 4 -17 -4 -7 -2 -8 5 -4
6 4 9 11 6 16 -3 5 -1 19 5 30 7 13 7 20 1 20 -6 0 -15 -9 -21 -19z"/>
<path d="M3589 5637 c6 -8 7 -18 3 -22 -4 -5 -1 -5 6 -1 10 6 10 11 1 22 -6 8
-14 14 -16 14 -3 0 0 -6 6 -13z"/>
<path d="M3536 5563 c-6 -14 -5 -15 5 -6 7 7 10 15 7 18 -3 3 -9 -2 -12 -12z"/>
<path d="M3367 5427 c-6 -17 17 -55 26 -41 3 5 0 20 -7 33 -10 18 -14 20 -19
8z"/>
<path d="M3308 5285 c-3 -14 -2 -27 1 -30 4 -2 8 10 9 26 3 36 -4 38 -10 4z"/>
<path d="M7354 5258 c-5 -8 3 -12 20 -9 5 1 6 -5 2 -14 -3 -9 -2 -14 3 -11 9
6 29 -13 30 -29 1 -5 6 -10 13 -10 7 0 17 -10 24 -23 18 -37 25 -38 18 -2 -5
24 -4 31 5 26 6 -4 9 -11 6 -16 -3 -5 -1 -11 5 -15 16 -10 12 21 -5 35 -8 7
-15 9 -15 4 0 -5 -7 0 -15 10 -8 11 -15 14 -15 7 0 -7 -5 -9 -10 -6 -8 5 -7
12 2 23 11 15 11 15 -3 4 -14 -10 -18 -10 -22 2 -3 7 -1 18 4 23 5 5 -1 9 -17
9 -14 0 -28 -4 -30 -8z"/>
<path d="M3256 5211 c-11 -4 -21 -18 -23 -32 -9 -58 -10 -98 -3 -94 4 3 6 18
4 35 -2 19 0 29 6 25 6 -4 7 1 3 11 -4 10 -2 15 4 11 5 -3 10 0 10 8 0 8 -5
15 -11 16 -6 0 0 4 12 10 13 5 29 6 34 2 7 -3 8 -1 4 5 -8 13 -13 14 -40 3z"/>
<path d="M7510 5184 c0 -5 7 -18 15 -28 8 -11 15 -16 15 -10 0 5 -7 18 -15 28
-8 11 -15 16 -15 10z"/>
<path d="M7534 5088 c-9 -14 27 -51 39 -39 14 14 4 44 -15 47 -10 1 -21 -2
-24 -8z"/>
<path d="M4749 4934 c-8 -9 -44 -12 -44 -4 0 1 -8 3 -17 5 -22 4 -22 4 -3 -31
10 -19 15 -23 15 -12 0 11 6 17 18 15 27 -4 43 -17 36 -30 -4 -7 -3 -8 2 -4 9
9 10 13 13 43 0 8 6 12 11 9 6 -4 8 -10 5 -15 -6 -10 15 -8 32 3 9 6 11 3 6
-10 -8 -23 1 -15 16 15 7 12 8 22 4 21 -4 -1 -10 0 -13 1 -18 8 -73 4 -81 -6z
m14 -14 c-3 -12 -8 -19 -11 -16 -5 6 5 36 12 36 2 0 2 -9 -1 -20z m41 4 c3 -8
2 -12 -4 -9 -6 3 -10 10 -10 16 0 14 7 11 14 -7z"/>
<path d="M4612 4911 c-7 -20 -16 -29 -25 -25 -10 3 -17 -4 -21 -22 -6 -22 -9
-25 -17 -13 -5 7 -9 10 -9 6 0 -4 7 -19 16 -33 16 -23 18 -24 35 -8 20 18 27
6 9 -12 -8 -8 -5 -15 7 -25 16 -12 17 -12 6 2 -10 12 -10 18 -1 27 9 9 8 16
-5 29 -10 12 -13 24 -8 32 6 9 11 10 15 2 4 -6 4 -11 0 -11 -4 0 1 -9 12 -21
10 -12 18 -24 17 -28 -1 -3 0 -8 2 -9 4 -4 -2 31 -5 36 -2 1 -4 7 -5 12 -1 6
-4 12 -5 15 -7 13 -5 31 3 43 7 8 7 16 0 23 -7 7 -14 1 -21 -20z m-25 -46 c-4
-8 -2 -17 4 -21 6 -4 6 -11 -2 -20 -18 -22 -30 3 -16 33 11 25 23 32 14 8z"/>
<path d="M5060 4900 c-6 -11 -8 -20 -6 -20 3 0 10 9 16 20 6 11 8 20 6 20 -3
0 -10 -9 -16 -20z"/>
<path d="M4846 4883 c-6 -14 -5 -15 5 -6 7 7 10 15 7 18 -3 3 -9 -2 -12 -12z"/>
<path d="M5145 4883 c-14 -11 -15 -14 -4 -10 9 3 21 1 27 -5 6 -6 12 -6 16 0
12 20 -18 31 -39 15z"/>
<path d="M4545 4880 c-4 -6 -11 -8 -16 -5 -5 4 -9 -5 -9 -18 0 -30 -10 -40
-26 -26 -9 7 -12 6 -10 -7 2 -10 8 -20 14 -22 7 -2 10 -7 7 -12 -3 -4 2 -14
11 -21 8 -7 14 -8 12 -2 -2 6 2 11 7 12 13 1 14 -40 2 -56 -5 -7 -14 -10 -21
-6 -6 4 -5 -1 3 -10 13 -16 36 -14 26 3 -3 5 -1 11 5 15 6 4 8 10 5 15 -3 5
-1 12 5 15 8 5 7 12 -2 22 -7 9 -12 18 -10 20 1 1 2 9 2 16 0 6 -5 4 -11 -6
-10 -17 -29 -15 -29 4 0 6 5 7 12 3 6 -4 9 -3 6 2 -9 14 11 56 22 49 5 -3 10
1 10 9 0 18 -6 21 -15 6z"/>
<path d="M4710 4885 c0 -2 6 -8 13 -14 10 -8 14 -7 14 2 0 8 -6 14 -14 14 -7
0 -13 -1 -13 -2z"/>
<path d="M4780 4885 c0 -2 6 -8 13 -14 10 -8 14 -7 14 2 0 8 -6 14 -14 14 -7
0 -13 -1 -13 -2z"/>
<path d="M5105 4881 c-3 -5 -2 -12 3 -15 5 -3 9 1 9 9 0 17 -3 19 -12 6z"/>
<path d="M5205 4869 c-4 -6 -5 -12 -2 -15 2 -3 7 2 10 11 7 17 1 20 -8 4z"/>
<path d="M3140 4826 c0 -2 8 -10 18 -17 15 -13 16 -12 3 4 -13 16 -21 21 -21
13z"/>
<path d="M5566 4798 c3 -4 9 -8 15 -8 5 0 9 4 9 8 0 5 -7 9 -15 9 -8 0 -12 -4
-9 -9z"/>
<path d="M4570 4786 c0 -2 8 -10 18 -17 15 -13 16 -12 3 4 -13 16 -21 21 -21
13z"/>
<path d="M4417 4695 c-6 -16 4 -36 14 -29 5 3 10 -12 10 -33 1 -38 1 -38 9 -8
4 17 8 24 9 16 0 -8 4 -11 7 -8 4 4 1 13 -6 22 -7 8 -10 23 -8 33 4 12 -1 18
-13 18 -10 0 -20 -5 -22 -11z"/>
<path d="M4480 4671 c0 -6 4 -13 10 -16 6 -3 7 1 4 9 -7 18 -14 21 -14 7z"/>
<path d="M3140 4425 c0 -5 5 -17 10 -25 5 -8 10 -10 10 -5 0 6 -5 17 -10 25
-5 8 -10 11 -10 5z"/>
<path d="M4300 4420 c-8 -5 -11 -10 -7 -10 4 0 3 -8 -2 -18 -8 -14 -6 -19 5
-19 7 0 12 2 10 5 -3 2 -1 15 4 28 11 27 11 27 -10 14z"/>
<path d="M4286 4348 c3 -5 10 -6 15 -3 13 9 11 12 -6 12 -8 0 -12 -4 -9 -9z"/>
<path d="M4260 4151 c0 -5 -10 -7 -22 -5 -14 2 -17 1 -8 -3 8 -3 20 -13 27
-22 11 -14 12 -12 13 12 0 15 -2 27 -5 27 -3 0 -5 -4 -5 -9z"/>
<path d="M4650 3650 c0 -8 69 -24 76 -18 2 2 -14 9 -36 15 -22 5 -40 7 -40 3z"/>
<path d="M4130 2592 c0 -12 4 -22 9 -22 10 0 9 26 -2 36 -4 4 -7 -2 -7 -14z"/>
<path d="M5490 1890 c6 -11 13 -20 16 -20 2 0 0 9 -6 20 -6 11 -13 20 -16 20
-2 0 0 -9 6 -20z"/>
<path d="M3161 8826 c-15 -17 -1 -28 19 -15 11 6 12 9 2 9 -7 0 -10 5 -7 10 9
15 -1 12 -14 -4z"/>
<path d="M2614 8760 c0 -13 4 -16 10 -10 7 7 7 13 0 20 -6 6 -10 3 -10 -10z"/>
<path d="M2641 8764 c0 -11 3 -14 6 -6 3 7 2 16 -1 19 -3 4 -6 -2 -5 -13z"/>
<path d="M2450 8752 c0 -7 -4 -10 -10 -7 -6 3 -7 -1 -3 -10 5 -13 7 -14 14 -3
7 11 9 10 9 -1 0 -8 3 -12 6 -8 3 3 1 14 -5 24 -6 11 -11 13 -11 5z"/>
<path d="M2107 8704 c-3 -3 -3 -13 0 -22 4 -15 3 -15 -10 0 -13 16 -15 16 -26
-8 -16 -36 -3 -50 23 -25 18 17 25 18 35 8 8 -6 6 0 -3 14 -9 14 -13 29 -9 32
3 4 4 7 1 7 -2 0 -7 -3 -11 -6z m-20 -49 c-15 -16 -19 -13 -11 9 3 9 10 13 15
10 5 -3 3 -11 -4 -19z"/>
<path d="M1600 8324 c0 -9 -5 -12 -12 -8 -6 4 -9 3 -6 -2 3 -5 2 -18 -3 -29
l-8 -20 -1 20 c-2 11 -2 24 -1 28 1 5 -3 6 -8 3 -5 -3 -7 -16 -3 -28 3 -14 1
-19 -6 -14 -8 5 -10 1 -6 -11 4 -13 0 -11 -16 7 -15 17 -18 19 -12 5 8 -14 6
-22 -6 -33 -15 -11 -14 -12 6 -2 17 8 22 8 22 -2 1 -7 7 -2 15 12 9 16 15 20
15 10 1 -8 8 0 16 18 8 18 18 30 23 27 5 -3 7 4 4 15 -6 24 -13 26 -13 4z"/>
<path d="M1439 8227 c6 -8 7 -18 3 -22 -4 -5 -1 -5 6 -1 10 6 10 11 1 22 -6 8
-14 14 -16 14 -3 0 0 -6 6 -13z"/>
<path d="M1465 8150 c3 -5 8 -10 11 -10 2 0 4 5 4 10 0 6 -5 10 -11 10 -5 0
-7 -4 -4 -10z"/>
<path d="M1314 8045 c-4 -8 -10 -13 -14 -10 -13 8 -4 -43 10 -60 7 -8 17 -12
22 -9 5 3 3 13 -6 23 -9 10 -16 22 -16 27 0 5 5 2 10 -6 8 -13 10 -12 10 3 0
11 4 15 12 11 7 -4 8 -3 4 5 -4 6 -12 8 -18 5 -7 -5 -9 -1 -5 9 3 10 4 17 1
17 -2 0 -7 -7 -10 -15z"/>
<path d="M1862 8520 c-13 -21 -17 -58 -5 -46 4 4 8 15 8 24 0 9 5 16 12 15 7
-2 10 4 7 12 -8 19 -7 19 -22 -5z"/>
<path d="M1827 8483 c5 -12 3 -14 -7 -8 -9 5 -11 4 -6 -4 4 -6 12 -9 17 -6 12
8 12 35 -1 35 -5 0 -6 -7 -3 -17z"/>
<path d="M1751 8426 c-9 -11 -9 -16 1 -22 7 -4 10 -4 6 1 -4 4 -3 14 3 22 6 7
9 13 6 13 -2 0 -10 -6 -16 -14z"/>
<path d="M1436 8122 c-3 -5 1 -9 9 -9 8 0 12 4 9 9 -3 4 -7 8 -9 8 -2 0 -6 -4
-9 -8z"/>
<path d="M9089 5748 c0 -2 -3 -19 -6 -38 -2 -19 -9 -39 -14 -44 -13 -14 -11
-28 3 -24 6 2 13 15 15 29 2 13 5 36 7 52 2 15 2 27 0 27 -2 0 -4 -1 -5 -2z"/>
<path d="M9031 5214 c0 -11 3 -14 6 -6 3 7 2 16 -1 19 -3 4 -6 -2 -5 -13z"/>
<path d="M9051 4844 c0 -11 3 -14 6 -6 3 7 2 16 -1 19 -3 4 -6 -2 -5 -13z"/>
<path d="M9052 4800 c0 -14 2 -19 5 -12 2 6 2 18 0 25 -3 6 -5 1 -5 -13z"/>
<path d="M9060 4740 c0 -5 5 -10 11 -10 5 0 7 5 4 10 -3 6 -8 10 -11 10 -2 0
-4 -4 -4 -10z"/>
<path d="M3221 2724 c0 -11 3 -14 6 -6 3 7 2 16 -1 19 -3 4 -6 -2 -5 -13z"/>
<path d="M3201 2708 c-1 -10 -5 -18 -11 -18 -5 0 -10 -5 -10 -12 0 -8 6 -7 16
4 9 9 14 22 11 30 -4 9 -6 7 -6 -4z"/>
<path d="M3152 2683 c1 -4 -3 -18 -10 -30 -17 -31 -8 -29 12 1 10 16 12 27 6
31 -6 4 -9 3 -8 -2z"/>
<path d="M3114 2645 c-4 -8 -11 -12 -17 -8 -6 3 -7 1 -3 -5 10 -16 14 -15 26
8 6 11 8 20 5 20 -3 0 -8 -7 -11 -15z"/>
<path d="M3000 2597 c0 -2 6 -10 14 -16 11 -9 16 -9 22 1 4 7 4 10 -1 6 -4 -4
-14 -3 -22 3 -7 6 -13 9 -13 6z"/>
<path d="M2911 2538 c9 -16 29 -17 29 -2 0 3 -5 2 -12 -2 -7 -5 -9 -2 -6 8 4
8 0 15 -7 15 -10 0 -11 -5 -4 -19z"/>
<path d="M8799 1493 c-13 -16 -12 -17 4 -4 16 13 21 21 13 21 -2 0 -10 -8 -17
-17z"/>
<path d="M8759 1453 c-13 -16 -12 -17 4 -4 16 13 21 21 13 21 -2 0 -10 -8 -17
-17z"/>
<path d="M4758 1053 c7 -3 16 -2 19 1 4 3 -2 6 -13 5 -11 0 -14 -3 -6 -6z"/>
<path d="M4803 1053 c9 -2 25 -2 35 0 9 3 1 5 -18 5 -19 0 -27 -2 -17 -5z"/>
<path d="M4928 1053 c7 -3 16 -2 19 1 4 3 -2 6 -13 5 -11 0 -14 -3 -6 -6z"/>
<path d="M4978 1053 c12 -2 32 -2 45 0 12 2 2 4 -23 4 -25 0 -35 -2 -22 -4z"/>
<path d="M5063 1053 c9 -2 25 -2 35 0 9 3 1 5 -18 5 -19 0 -27 -2 -17 -5z"/>
<path d="M5885 900 c10 -11 20 -20 23 -20 3 0 -3 9 -13 20 -10 11 -20 20 -23
20 -3 0 3 -9 13 -20z"/>
<path d="M5926 872 c-3 -5 1 -9 9 -9 8 0 12 4 9 9 -3 4 -7 8 -9 8 -2 0 -6 -4
-9 -8z"/>
<path d="M5280 866 c0 -2 8 -10 18 -17 15 -13 16 -12 3 4 -13 16 -21 21 -21
13z"/>
<path d="M8328 10233 c37 -4 47 -11 43 -35 0 -4 6 -5 15 -1 13 5 13 7 2 15
-16 11 56 2 80 -11 9 -4 27 -7 40 -6 12 1 22 -1 22 -5 0 -4 7 -7 15 -7 8 0 15
6 15 12 0 14 -178 46 -237 43 l-38 -1 43 -4z"/>
<path d="M8570 10196 c0 -11 58 -32 83 -31 15 1 27 -3 27 -8 0 -6 3 -7 7 -4 3
4 13 1 21 -6 13 -9 14 -9 8 1 -4 6 -2 12 3 12 6 0 11 -5 11 -11 0 -5 4 -8 9
-4 5 3 13 1 16 -5 5 -8 12 -7 23 2 12 10 14 10 8 1 -7 -13 0 -16 37 -16 12 0
16 -5 12 -15 -4 -11 -2 -12 7 -4 10 8 26 4 61 -14 27 -13 45 -19 42 -14 -4 6
5 9 20 8 14 -1 24 -7 21 -14 -2 -6 6 -16 20 -23 20 -9 24 -8 24 5 0 8 5 12 10
9 6 -4 8 -10 5 -15 -8 -13 22 -19 35 -7 10 10 12 8 7 -6 -4 -10 -3 -16 3 -12
5 3 25 -1 44 -9 19 -8 38 -11 42 -8 5 4 3 0 -3 -9 -10 -13 -5 -18 34 -32 63
-24 80 -6 22 23 -83 43 -201 90 -210 84 -5 -3 -9 -1 -9 5 0 11 -126 51 -272
87 -82 21 -103 23 -109 12 -7 -10 -9 -9 -9 5 0 11 -8 17 -25 17 -14 0 -25 -2
-25 -4z m665 -224 c-3 -3 -11 0 -18 7 -9 10 -8 11 6 5 10 -3 15 -9 12 -12z"/>
<path d="M9264 9949 c-9 -16 11 -31 40 -31 14 0 23 -5 20 -9 -3 -5 -2 -9 3 -8
22 4 43 -2 38 -11 -4 -6 1 -7 11 -3 14 5 16 3 11 -11 -4 -9 -3 -15 2 -12 5 3
14 -1 21 -10 7 -8 19 -13 26 -10 8 3 11 -2 9 -15 -2 -11 0 -17 5 -14 5 3 12 0
15 -6 4 -5 14 -8 22 -5 8 3 12 2 9 -2 -3 -5 4 -16 15 -25 22 -20 33 -22 23 -5
-4 7 -3 8 5 4 9 -6 9 -11 0 -22 -7 -9 -8 -14 -3 -13 19 3 35 -1 30 -10 -3 -4
6 -13 20 -20 14 -6 22 -16 19 -21 -3 -6 1 -10 10 -10 10 0 13 -5 9 -12 -4 -7
-4 -10 0 -7 8 8 62 -39 59 -51 -1 -4 6 -6 16 -3 21 5 37 -12 21 -22 -7 -4 2
-20 22 -39 18 -18 42 -45 53 -61 11 -15 25 -33 30 -39 6 -6 16 -24 23 -39 7
-16 18 -27 25 -24 14 5 21 -49 7 -58 -6 -4 -10 -12 -10 -18 0 -8 4 -7 9 2 8
12 12 12 25 2 24 -20 78 -132 73 -152 -3 -11 -2 -17 1 -15 11 7 29 -19 26 -37
-1 -9 2 -15 7 -11 5 3 9 -1 9 -8 0 -7 11 -38 24 -69 15 -37 20 -63 15 -77 -5
-13 -4 -24 3 -28 6 -4 8 -3 4 4 -3 6 -3 13 2 16 4 2 8 -7 9 -22 1 -33 6 -51
19 -77 6 -11 10 -39 10 -62 -1 -22 2 -39 7 -36 4 2 8 -2 9 -9 2 -23 4 -32 17
-77 16 -56 25 -123 26 -188 0 -28 2 -50 5 -48 9 6 14 -78 8 -132 -3 -20 0 -33
7 -33 7 0 12 -6 12 -12 1 -7 4 -49 8 -93 4 -44 8 -101 8 -127 1 -27 4 -48 8
-48 4 0 6 -12 5 -27 -1 -16 1 -44 5 -63 18 -98 3 280 -21 500 -14 131 -52 340
-60 335 -4 -2 -5 7 -2 22 3 14 1 24 -4 20 -5 -3 -9 11 -10 31 -1 48 -44 203
-54 197 -5 -3 -6 5 -2 17 3 14 1 19 -6 14 -8 -4 -10 -2 -6 7 6 16 -53 165 -93
237 -50 87 -105 170 -115 170 -5 0 -7 4 -3 9 3 5 -5 17 -17 26 -13 8 -21 18
-19 21 5 8 -97 128 -166 195 -80 78 -234 200 -244 193 -5 -3 -9 -1 -9 5 0 9
-110 81 -123 81 -3 0 -9 -5 -13 -11z m366 -254 c19 -19 32 -35 29 -35 -3 0
-20 16 -39 35 -19 19 -32 35 -29 35 3 0 20 -16 39 -35z m311 -400 c7 -13 3
-12 -10 5 -11 14 -21 30 -21 35 0 11 14 -7 31 -40z m39 -65 c6 -11 8 -20 6
-20 -3 0 -10 9 -16 20 -6 11 -8 20 -6 20 3 0 10 -9 16 -20z m207 -762 c-3 -8
-6 -5 -6 6 -1 11 2 17 5 13 3 -3 4 -12 1 -19z"/>
<path d="M8285 9441 c-3 -5 -2 -12 3 -15 5 -3 9 1 9 9 0 17 -3 19 -12 6z"/>
<path d="M9790 9426 c0 -2 7 -7 16 -10 8 -3 12 -2 9 4 -6 10 -25 14 -25 6z"/>
<path d="M10016 8983 c-6 -14 -5 -15 5 -6 7 7 10 15 7 18 -3 3 -9 -2 -12 -12z"/>
<path d="M10170 8231 c0 -6 4 -13 10 -16 6 -3 7 1 4 9 -7 18 -14 21 -14 7z"/>
<path d="M9750 7846 c0 -2 8 -10 18 -17 15 -13 16 -12 3 4 -13 16 -21 21 -21
13z"/>
<path d="M9806 7622 c-2 -4 -1 -14 4 -22 7 -11 9 -9 7 8 -1 24 -3 26 -11 14z"/>
<path d="M9847 7425 c-4 -8 -3 -16 1 -19 4 -3 9 4 9 15 2 23 -3 25 -10 4z"/>
<path d="M9855 7301 c-3 -5 -1 -12 5 -16 6 -4 7 -11 4 -17 -4 -7 -2 -8 5 -4 8
6 9 12 2 20 -6 7 -8 16 -4 19 3 4 4 7 0 7 -3 0 -8 -4 -12 -9z"/>
<path d="M9857 7219 c6 -6 9 -19 6 -28 -4 -13 -3 -13 5 -2 12 16 5 41 -11 41
-8 0 -8 -3 0 -11z"/>
<path d="M9883 5375 c0 -8 4 -12 9 -9 5 3 6 10 3 15 -9 13 -12 11 -12 -6z"/>
<path d="M9933 5273 c6 -10 -18 -38 -32 -38 -12 0 -1 -120 12 -130 4 -3 5 -2
2 2 -3 3 0 12 7 20 8 10 8 17 0 25 -8 8 -7 16 1 29 9 14 9 21 -1 31 -9 9 -7
17 9 34 15 16 17 24 8 29 -7 5 -10 4 -6 -2z m-13 -78 c0 -8 -3 -16 -7 -18 -5
-3 -8 5 -8 18 0 13 3 21 8 18 4 -2 7 -10 7 -18z m-2 -60 c-3 -3 -9 2 -12 12
-6 14 -5 15 5 6 7 -7 10 -15 7 -18z"/>
<path d="M9941 5236 c-7 -9 -8 -17 -2 -20 11 -7 9 -24 -3 -46 -5 -8 -6 -12 -1
-8 4 4 15 2 24 -5 14 -10 14 -10 5 3 -6 8 -10 23 -9 32 2 10 -1 21 -6 24 -6 3
-5 11 2 20 6 8 9 14 6 14 -2 0 -10 -6 -16 -14z"/>
<path d="M9970 5215 c5 -7 6 -16 2 -21 -4 -5 -3 -5 2 -1 15 12 15 34 0 34 -9
0 -11 -4 -4 -12z"/>
<path d="M9941 5143 c1 -4 0 -10 -1 -13 -6 -16 -7 -41 -2 -35 4 4 7 10 7 13 0
4 4 12 8 19 4 6 3 15 -3 18 -6 4 -10 3 -9 -2z"/>
<path d="M9976 5141 c-3 -4 4 -17 17 -27 22 -19 22 -19 4 2 -9 11 -14 24 -10
27 3 4 4 7 0 7 -3 0 -8 -4 -11 -9z"/>
<path d="M9960 5116 c0 -2 8 -10 18 -17 15 -13 16 -12 3 4 -13 16 -21 21 -21
13z"/>
<path d="M9945 5079 c-4 -6 -5 -12 -2 -15 2 -3 7 2 10 11 7 17 1 20 -8 4z"/>
<path d="M9776 2922 c-3 -5 1 -9 9 -9 8 0 12 4 9 9 -3 4 -7 8 -9 8 -2 0 -6 -4
-9 -8z"/>
<path d="M9770 2616 c0 -2 8 -10 18 -17 15 -13 16 -12 3 4 -13 16 -21 21 -21
13z"/>
<path d="M10222 2085 c0 -16 2 -22 5 -12 2 9 2 23 0 30 -3 6 -5 -1 -5 -18z"/>
<path d="M10213 1970 c0 -25 2 -35 4 -22 2 12 2 32 0 45 -2 12 -4 2 -4 -23z"/>
<path d="M10203 1875 c0 -22 2 -30 4 -17 2 12 2 30 0 40 -3 9 -5 -1 -4 -23z"/>
<path d="M10193 1795 c0 -22 2 -30 4 -17 2 12 2 30 0 40 -3 9 -5 -1 -4 -23z"/>
<path d="M10182 1720 c0 -19 2 -27 5 -17 2 9 2 25 0 35 -3 9 -5 1 -5 -18z"/>
<path d="M10166 1624 c-4 -31 -5 -59 -2 -61 2 -3 8 21 11 52 4 31 5 58 3 61
-3 2 -8 -21 -12 -52z"/>
<path d="M10131 1434 c-13 -65 -38 -171 -56 -234 -18 -63 -32 -117 -30 -119
12 -12 120 423 113 457 -2 8 -14 -39 -27 -104z"/>
<path d="M9995 982 c-22 -47 -63 -124 -92 -169 -28 -46 -50 -83 -47 -83 18 0
194 323 183 334 -2 3 -22 -34 -44 -82z"/>
<path d="M9806 675 c-43 -52 -43 -52 -116 -131 -34 -37 -26 -31 20 16 71 71
147 160 137 160 -3 0 -21 -20 -41 -45z"/>
<path d="M9589 453 c-13 -16 -12 -17 4 -4 9 7 17 15 17 17 0 8 -8 3 -21 -13z"/>
<path d="M6436 221 c-4 -5 -2 -12 3 -15 5 -4 12 -2 15 3 4 5 2 12 -3 15 -5 4
-12 2 -15 -3z"/>
<path d="M8070 216 c0 -2 7 -7 16 -10 8 -3 12 -2 9 4 -6 10 -25 14 -25 6z"/>
<path d="M4860 201 c0 -6 4 -13 10 -16 6 -3 7 1 4 9 -7 18 -14 21 -14 7z"/>
<path d="M4890 206 c0 -2 8 -10 18 -17 15 -13 16 -12 3 4 -13 16 -21 21 -21
13z"/>
<path d="M5670 206 c0 -2 8 -10 18 -17 15 -13 16 -12 3 4 -13 16 -21 21 -21
13z"/>
<path d="M6020 199 c0 -5 -6 -7 -12 -3 -7 4 -4 -2 6 -14 11 -12 22 -22 25 -22
3 0 0 5 -6 11 -6 6 -9 18 -6 25 3 8 2 14 -1 14 -3 0 -6 -5 -6 -11z"/>
<path d="M6056 193 c-6 -14 -5 -15 5 -6 7 7 10 15 7 18 -3 3 -9 -2 -12 -12z"/>
<path d="M6313 195 c0 -8 4 -12 9 -9 5 3 6 10 3 15 -9 13 -12 11 -12 -6z"/>
<path d="M6730 201 c0 -6 4 -13 10 -16 6 -3 7 1 4 9 -7 18 -14 21 -14 7z"/>
<path d="M7533 197 c0 -8 6 -14 14 -14 9 0 10 4 2 14 -6 7 -12 13 -14 13 -1 0
-2 -6 -2 -13z"/>
<path d="M5836 192 c-3 -5 1 -9 9 -9 8 0 12 4 9 9 -3 4 -7 8 -9 8 -2 0 -6 -4
-9 -8z"/>
</g>
</svg>
